<svg width="116" height="100" viewBox="0 0 116 100" fill="none" xmlns="http://www.w3.org/2000/svg">
<g clip-path="url(#clip0_21_7898)">
<path fill-rule="evenodd" clip-rule="evenodd" d="M48.8235 18.1038C48.6854 18.1538 48.44 18.1952 48.2783 18.1957C48.1165 18.1962 47.9046 18.2287 47.8075 18.2678C47.7103 18.307 47.3624 18.3618 47.0344 18.3897C46.7064 18.4174 46.333 18.4848 46.2046 18.5393C46.0763 18.5938 45.8204 18.6385 45.636 18.6385C45.4384 18.6385 45.2507 18.6765 45.1788 18.7311C45.1101 18.7834 44.9185 18.8247 44.7394 18.8258C44.5603 18.8269 44.3687 18.8682 44.3 18.9205C44.233 18.9715 44.0788 19.0141 43.9575 19.0151C43.8362 19.0163 43.6314 19.074 43.5026 19.1434C43.3738 19.2128 43.1729 19.2696 43.0561 19.2696C42.9394 19.2696 42.8087 19.3122 42.7657 19.3643C42.7227 19.4164 42.5851 19.4599 42.4599 19.461C42.3346 19.4621 42.1773 19.5047 42.1103 19.5557C42.0432 19.6066 41.9231 19.6483 41.8432 19.6483C41.7634 19.6483 41.5927 19.7051 41.4638 19.7746C41.335 19.844 41.1691 19.9008 41.0951 19.9008C41.0211 19.9008 40.9255 19.9434 40.8825 19.9955C40.8395 20.0475 40.7345 20.0901 40.6491 20.0901C40.5637 20.0901 40.4188 20.1292 40.3272 20.177C39.9461 20.3756 39.5758 20.532 39.4866 20.532C39.4341 20.532 39.3561 20.5746 39.3131 20.6266C39.2701 20.6787 39.1698 20.7213 39.0902 20.7213C39.0106 20.7213 38.9031 20.7639 38.8513 20.816C38.7995 20.8681 38.7029 20.9107 38.6367 20.9107C38.5704 20.9107 38.4511 20.9675 38.3715 21.0369C38.2919 21.1063 38.1737 21.1631 38.1088 21.1631C38.0439 21.1631 37.9746 21.2057 37.9548 21.2578C37.9349 21.3099 37.8545 21.3525 37.7761 21.3525C37.6977 21.3525 37.5984 21.3951 37.5554 21.4471C37.5124 21.4992 37.424 21.5418 37.3588 21.5418C37.2937 21.5418 37.192 21.5986 37.1328 21.6681C37.0737 21.7375 36.9601 21.7943 36.8803 21.7943C36.8006 21.7943 36.7191 21.8369 36.6993 21.889C36.6794 21.941 36.6252 21.9836 36.5788 21.9836C36.5325 21.9836 36.3704 22.0678 36.2188 22.1708C36.067 22.2737 35.8679 22.3866 35.7761 22.4217C35.6844 22.4568 35.6094 22.5146 35.6094 22.5501C35.6094 22.5857 35.5659 22.6148 35.5127 22.6148C35.4213 22.6148 35.1176 22.8046 34.9318 22.9777C34.8852 23.0211 34.8082 23.0566 34.7606 23.0566C34.713 23.0566 34.6515 23.0921 34.6238 23.1355C34.5672 23.2246 34.392 23.3424 34.1783 23.435C34.0991 23.4694 33.9437 23.5828 33.8331 23.687C33.7225 23.7913 33.601 23.8767 33.5631 23.8768C33.5253 23.877 33.4291 23.9339 33.3495 24.0034C33.2699 24.0728 33.1808 24.1296 33.1516 24.1296C33.1223 24.1296 33.0984 24.1689 33.0984 24.2169C33.0984 24.2649 33.049 24.3222 32.9886 24.3441C32.8071 24.4102 32.6054 24.5423 32.3911 24.7357C32.2797 24.8363 31.9906 25.0719 31.7489 25.2593C31.5072 25.4467 31.1768 25.7378 31.0147 25.9062C30.8527 26.0747 30.7065 26.2125 30.6899 26.2125C30.5914 26.2125 28.9861 27.7891 28.5473 28.3168C28.4092 28.4829 28.1319 28.7945 27.9312 29.0093C27.7305 29.2241 27.4213 29.5916 27.2441 29.8259C27.0669 30.0602 26.8992 30.2519 26.8714 30.2519C26.8437 30.2519 26.821 30.2945 26.821 30.3466C26.821 30.3986 26.7955 30.4412 26.7644 30.4412C26.7161 30.4412 26.4689 30.7917 26.3895 30.9728C26.3754 31.0047 26.2864 31.1071 26.1915 31.2003C26.0967 31.2935 25.9999 31.4307 25.9764 31.5051C25.9529 31.5796 25.9066 31.6405 25.8736 31.6405C25.8405 31.6405 25.7866 31.7115 25.7538 31.7983C25.721 31.885 25.6682 31.956 25.6366 31.956C25.605 31.956 25.5613 32.027 25.5397 32.1138C25.518 32.2006 25.4726 32.2716 25.4387 32.2716C25.4048 32.2716 25.3771 32.3049 25.3771 32.3455C25.3771 32.3862 25.3302 32.4716 25.2729 32.5353C25.1599 32.6609 25.0429 32.8522 24.942 33.0764C24.9068 33.1545 24.8491 33.2184 24.8137 33.2184C24.7783 33.2184 24.7494 33.2754 24.7494 33.3452C24.7494 33.415 24.6929 33.5207 24.6239 33.5802C24.5548 33.6396 24.4983 33.721 24.4983 33.7612C24.4983 33.8012 24.4559 33.8694 24.4041 33.9126C24.3524 33.9559 24.31 34.0415 24.31 34.1029C24.31 34.1644 24.2676 34.2311 24.2158 34.2511C24.164 34.271 24.1217 34.3529 24.1217 34.4331C24.1217 34.5133 24.0652 34.6275 23.9961 34.687C23.9271 34.7464 23.8706 34.853 23.8706 34.9239C23.8706 34.9947 23.8282 35.0691 23.7764 35.089C23.7246 35.109 23.6822 35.187 23.6822 35.2624C23.6822 35.3378 23.6257 35.448 23.5567 35.5075C23.4876 35.5669 23.4311 35.6692 23.4311 35.7347C23.4311 35.8002 23.3888 35.8891 23.337 35.9324C23.2852 35.9756 23.2428 36.0755 23.2428 36.1542C23.2428 36.2331 23.2004 36.3139 23.1486 36.3339C23.0969 36.3539 23.0545 36.4328 23.0545 36.5093C23.0545 36.5857 23.0128 36.6946 22.9618 36.7512C22.9109 36.8079 22.8607 36.9097 22.8504 36.9777C22.8401 37.0456 22.7829 37.1712 22.7233 37.2567C22.6638 37.3422 22.6151 37.4777 22.6151 37.5579C22.6151 37.638 22.5727 37.72 22.5209 37.7399C22.4626 37.7624 22.4267 37.8585 22.4267 37.9924C22.4267 38.1195 22.3905 38.2225 22.3387 38.2425C22.2903 38.2611 22.2315 38.3795 22.208 38.5055C22.1845 38.6315 22.1252 38.792 22.0763 38.8623C22.0274 38.9325 21.9873 39.0655 21.9873 39.1576C21.9873 39.2498 21.9449 39.3605 21.8932 39.4038C21.8414 39.447 21.799 39.5748 21.799 39.6878C21.799 39.8008 21.7566 39.9286 21.7048 39.9718C21.653 40.0151 21.6107 40.1322 21.6107 40.2322C21.6107 40.3323 21.5542 40.5201 21.4851 40.6496C21.4161 40.7791 21.3596 40.9744 21.3596 41.0835C21.3596 41.1926 21.3172 41.3171 21.2654 41.3604C21.2056 41.4103 21.1712 41.5497 21.1712 41.7423C21.1712 41.9278 21.1346 42.0824 21.0771 42.1403C21.0226 42.1951 20.9827 42.3499 20.9825 42.5078C20.9823 42.6577 20.9386 42.8644 20.8854 42.967C20.8322 43.0696 20.7727 43.2685 20.7532 43.4088C20.7229 43.6271 20.684 43.6802 20.4846 43.7746C20.3562 43.8353 20.2075 43.885 20.154 43.885C20.1004 43.885 20.0215 43.9276 19.9785 43.9797C19.9355 44.0318 19.8367 44.0744 19.7588 44.0744C19.681 44.0744 19.5821 44.117 19.5391 44.1691C19.4961 44.2211 19.4259 44.2637 19.3832 44.2637C19.2946 44.2637 18.3462 44.7443 18.2554 44.8353C18.2225 44.8681 18.1493 44.8949 18.0925 44.8949C18.0357 44.8949 17.938 44.9517 17.8756 45.0211C17.8131 45.0906 17.721 45.1474 17.6709 45.1474C17.6208 45.1474 17.4768 45.2267 17.351 45.3237C17.2252 45.4207 17.0446 45.5337 16.9497 45.5748C16.8547 45.6159 16.777 45.6786 16.777 45.7141C16.777 45.7495 16.7377 45.7785 16.6896 45.7785C16.6415 45.7785 16.5859 45.8211 16.566 45.8732C16.5461 45.9253 16.4782 45.9679 16.415 45.9679C16.3519 45.9679 16.2026 46.0664 16.0835 46.1868C15.9643 46.3072 15.8414 46.4066 15.8105 46.4077C15.7483 46.4099 15.2891 46.7775 14.9802 47.0724C14.8711 47.1766 14.6305 47.3882 14.4455 47.5428C14.0714 47.8552 13.3478 48.5865 13.0105 48.9929C12.8897 49.1385 12.7054 49.3483 12.601 49.4589C12.2788 49.8005 11.9464 50.2418 11.9833 50.2789C12.0026 50.2983 11.9591 50.3514 11.8867 50.3968C11.8143 50.4423 11.755 50.5153 11.755 50.559C11.755 50.6027 11.7318 50.6385 11.7034 50.6385C11.6445 50.6385 11.3156 51.125 11.3156 51.2122C11.3156 51.2438 11.2859 51.2697 11.2496 51.2697C11.2132 51.2697 11.154 51.3549 11.1179 51.459C11.0818 51.5631 11.0314 51.6484 11.0059 51.6484C10.9804 51.6484 10.8809 51.8046 10.7848 51.9955C10.6888 52.1864 10.5852 52.3426 10.5549 52.3426C10.5244 52.3426 10.4996 52.3977 10.4996 52.4651C10.4996 52.5326 10.4735 52.6038 10.4417 52.6236C10.4099 52.6434 10.2955 52.8368 10.1877 53.0534C10.0798 53.2699 9.96798 53.4898 9.93916 53.5418C9.81399 53.7677 9.62071 54.2247 9.62071 54.2949C9.62071 54.337 9.57834 54.414 9.52655 54.4661C9.47476 54.5181 9.43239 54.6262 9.43239 54.7063C9.43239 54.7863 9.39001 54.8872 9.33822 54.9304C9.28643 54.9736 9.24406 55.0872 9.24406 55.1829C9.24406 55.2785 9.20534 55.3891 9.15807 55.4285C9.11073 55.468 9.05637 55.6176 9.03728 55.761C9.01814 55.9043 8.96905 56.0424 8.92812 56.0678C8.88719 56.0932 8.83903 56.2449 8.82114 56.4048C8.80319 56.5648 8.74977 56.728 8.70244 56.7675C8.65473 56.8073 8.61631 56.9564 8.61631 57.1016C8.61631 57.2458 8.57802 57.4199 8.53119 57.4883C8.48436 57.5568 8.43051 57.7914 8.41142 58.0097C8.39234 58.2279 8.34325 58.447 8.30238 58.4965C8.26151 58.546 8.214 58.8219 8.1968 59.1095C8.17954 59.3972 8.12453 59.7462 8.0745 59.885C7.99973 60.0926 7.98819 60.5192 8.00953 62.2835C8.03621 64.4884 8.04081 64.5872 8.11689 64.5872C8.14143 64.5872 8.17356 64.8403 8.18825 65.1496C8.20306 65.4601 8.2494 65.7537 8.29177 65.805C8.33396 65.8562 8.38493 66.0788 8.40495 66.2998C8.42504 66.5208 8.48079 66.7645 8.52888 66.8414C8.57696 66.9183 8.61631 67.0923 8.61631 67.2281C8.61631 67.3706 8.65611 67.5084 8.71048 67.5537C8.76277 67.5973 8.80464 67.7349 8.80464 67.8629C8.80464 67.9898 8.85115 68.1604 8.90797 68.242C8.96478 68.3236 9.02096 68.4737 9.03276 68.5756C9.04456 68.6775 9.09692 68.8223 9.14915 68.8972C9.20137 68.9722 9.24406 69.1132 9.24406 69.2107C9.24406 69.3101 9.28543 69.404 9.33822 69.4243C9.39114 69.4448 9.43239 69.5387 9.43239 69.6388C9.43239 69.7367 9.47337 69.8581 9.52346 69.9084C9.5735 69.9588 9.63478 70.0812 9.65957 70.1805C9.68437 70.2799 9.74225 70.3989 9.78827 70.4452C9.86115 70.5184 9.9025 70.7033 9.87921 70.8515C9.87513 70.8776 9.90414 70.8918 9.94362 70.8831C9.98317 70.8744 10.0395 70.956 10.0689 71.0645C10.0984 71.173 10.1649 71.2971 10.2168 71.3405C10.2687 71.3838 10.3112 71.4726 10.3112 71.5377C10.3112 71.6029 10.3389 71.6562 10.3728 71.6562C10.4066 71.6562 10.4522 71.7276 10.474 71.8149C10.4957 71.9021 10.5526 71.9954 10.6003 72.0223C10.648 72.0491 10.6932 72.1461 10.7008 72.2378C10.7083 72.3295 10.734 72.3924 10.7578 72.3776C10.7991 72.352 11.0465 72.7222 11.0375 72.7961C11.0351 72.8154 11.1112 72.929 11.2067 73.0485C11.4208 73.3165 11.4306 73.3297 11.6537 73.6602C11.7534 73.8078 11.8524 73.9284 11.8738 73.9284C11.8952 73.9284 11.9498 74.0128 11.9952 74.1159C12.0406 74.219 12.1958 74.43 12.3401 74.5849C12.4844 74.7398 12.6943 74.9654 12.8065 75.0863C12.9188 75.2072 13.0105 75.3219 13.0105 75.3412C13.0105 75.3605 13.1589 75.5372 13.3401 75.7339C13.5213 75.9305 13.6626 76.116 13.654 76.146C13.6453 76.1761 13.6628 76.1936 13.6926 76.1848C13.7225 76.1762 13.9156 76.3275 14.1216 76.5212C14.3276 76.7148 14.5433 76.8915 14.6008 76.9137C14.6584 76.9359 14.7055 76.9833 14.7055 77.0192C14.7055 77.055 14.7478 77.0843 14.7996 77.0843C14.8514 77.0843 14.8938 77.1232 14.8938 77.1708C14.8938 77.2184 14.9925 77.3249 15.1131 77.4075C15.2336 77.49 15.3325 77.5782 15.3328 77.6033C15.333 77.6285 15.4189 77.6936 15.5236 77.748C15.6283 77.8025 15.6974 77.8739 15.6773 77.9067C15.657 77.9397 15.6849 77.9493 15.7397 77.9282C15.8409 77.8891 16.1926 78.2021 16.1619 78.3039C16.1532 78.3326 16.1704 78.341 16.1999 78.3226C16.2294 78.3042 16.3925 78.3866 16.5624 78.5056C16.7322 78.6247 16.9489 78.7539 17.0438 78.7929C17.1387 78.8319 17.2164 78.8895 17.2164 78.9208C17.2164 78.9521 17.2558 78.9777 17.3039 78.9777C17.352 78.9777 17.4066 79.0177 17.4252 79.0665C17.4438 79.1153 17.5434 79.1738 17.6464 79.1966C17.7494 79.2193 17.8493 79.2788 17.8684 79.3287C17.8874 79.3787 17.9584 79.4196 18.026 79.4196C18.0937 79.4196 18.1881 79.4588 18.2357 79.5067C18.2834 79.5546 18.4826 79.67 18.6784 79.7631C18.8742 79.8563 19.0508 79.9591 19.0707 79.9916C19.0907 80.0241 19.1726 80.0507 19.2527 80.0507C19.3327 80.0507 19.4305 80.0899 19.4701 80.1378C19.5096 80.1857 19.6277 80.2421 19.7325 80.2632C19.8373 80.2843 19.9658 80.3445 20.018 80.397C20.0703 80.4496 20.176 80.4925 20.2529 80.4925C20.3299 80.4925 20.4253 80.5252 20.465 80.5651C20.5046 80.6049 20.6445 80.6565 20.7757 80.6794C20.907 80.7025 21.0092 80.7491 21.0029 80.7831C20.9967 80.8172 21.0674 80.8516 21.1599 80.8597C21.4653 80.8862 21.5407 80.9083 21.6547 81.0049C21.7168 81.0574 21.8797 81.1084 22.0166 81.1183C22.1536 81.1277 22.3223 81.1757 22.3916 81.2243C22.4608 81.2729 22.6393 81.3133 22.7882 81.3133C22.9371 81.3133 23.1215 81.3531 23.1979 81.4029C23.2744 81.4522 23.5343 81.5109 23.7755 81.5336C24.0168 81.5563 24.2297 81.5998 24.2488 81.6314C24.2678 81.6623 24.4518 81.7053 24.6576 81.7267C24.8635 81.7482 25.1387 81.8056 25.2692 81.8548C25.6242 81.9893 84.4947 81.9893 84.9014 81.8555C85.049 81.8069 85.3283 81.7532 85.5223 81.7362C85.7162 81.7191 85.9334 81.6737 86.0056 81.6352C86.0778 81.5961 86.3289 81.5494 86.5637 81.5317C86.7985 81.5134 87.0609 81.4806 87.1475 81.4585C87.2335 81.4364 87.3258 81.4231 87.3515 81.4288C87.3773 81.4345 87.3986 81.4111 87.3986 81.3764C87.3986 81.3417 87.5486 81.3133 87.7319 81.3133C87.9278 81.3133 88.1155 81.2748 88.1871 81.2205C88.2536 81.1694 88.4011 81.1265 88.5147 81.1258C88.6277 81.1246 88.8255 81.0779 88.9542 81.022C89.0822 80.9661 89.3007 80.9069 89.4388 80.8904C89.5769 80.8739 89.72 80.8218 89.757 80.7747C89.7941 80.7275 89.9548 80.6821 90.1142 80.6738C90.2737 80.6655 90.3986 80.6297 90.3923 80.5942C90.3854 80.5587 90.4978 80.5126 90.6415 80.4918C90.7853 80.471 90.9454 80.4186 90.9975 80.3754C91.049 80.3322 91.1714 80.2822 91.2687 80.2644C91.3666 80.2466 91.4896 80.1926 91.543 80.1443C91.5957 80.096 91.7426 80.0496 91.8688 80.041C91.995 80.0325 92.0929 79.9981 92.0866 79.9645C92.0803 79.931 92.1632 79.8843 92.2705 79.8607C92.3779 79.8371 92.5323 79.7708 92.6139 79.7134C92.6955 79.6559 92.8092 79.6089 92.8663 79.6089C92.9234 79.6089 93.005 79.5663 93.0483 79.5142C93.091 79.4622 93.182 79.4196 93.2498 79.4196C93.3183 79.4196 93.4457 79.3628 93.5336 79.2933C93.6208 79.2239 93.7282 79.1671 93.7709 79.1671C93.8135 79.1671 93.8839 79.1245 93.9272 79.0724C93.9698 79.0203 94.049 78.9777 94.1023 78.9777C94.1557 78.9777 94.2479 78.9336 94.3076 78.8797C94.3666 78.8258 94.4727 78.7772 94.5436 78.7719C94.6139 78.7666 94.6591 78.7417 94.6434 78.7167C94.6284 78.6917 94.6692 78.6541 94.7345 78.6333C94.8004 78.6124 94.9177 78.5393 94.9962 78.4709C95.0747 78.4026 95.1921 78.3466 95.2567 78.3466C95.322 78.3466 95.3911 78.304 95.4112 78.2519C95.4306 78.1998 95.4877 78.1572 95.5373 78.1572C95.6397 78.1572 96.0044 77.9132 96.0803 77.7943C96.108 77.751 96.1783 77.7154 96.2373 77.7154C96.2957 77.7154 96.4551 77.6159 96.5907 77.4944C96.823 77.2863 96.9002 77.2461 97.0232 77.2677C97.0521 77.2727 97.0596 77.2518 97.0408 77.2213C97.022 77.1908 97.0766 77.1339 97.1619 77.0949C97.2473 77.0558 97.317 76.9948 97.317 76.9593C97.317 76.9239 97.3591 76.8949 97.4112 76.8949C97.4626 76.8949 97.5053 76.8658 97.5053 76.8302C97.5053 76.7658 97.8079 76.6129 97.8977 76.6323C97.9234 76.6378 97.9378 76.6186 97.929 76.5895C97.9203 76.5604 98.0119 76.4543 98.1331 76.3539C98.2536 76.2534 98.3754 76.1346 98.4036 76.0899C98.4319 76.0452 98.4808 76.0251 98.5135 76.0452C98.5461 76.0654 98.5725 76.0552 98.5725 76.0226C98.5725 75.99 98.7288 75.8445 98.9203 75.6993C99.3245 75.3923 101.109 73.6137 101.522 73.1069C101.677 72.9165 101.839 72.7381 101.883 72.7103C101.927 72.6825 101.962 72.6319 101.962 72.5978C101.962 72.5635 102.047 72.4523 102.151 72.3505C102.254 72.2487 102.339 72.1455 102.339 72.1213C102.339 72.097 102.38 72.0321 102.43 71.9771C102.726 71.6526 102.778 71.5892 102.778 71.5523C102.778 71.5298 102.872 71.3949 102.987 71.2525C103.102 71.11 103.213 70.9439 103.236 70.8831C103.258 70.8223 103.306 70.7726 103.341 70.7726C103.377 70.7726 103.406 70.7314 103.406 70.6811C103.406 70.6307 103.442 70.5669 103.486 70.5391C103.53 70.5113 103.601 70.4089 103.643 70.3115C103.685 70.214 103.743 70.1481 103.77 70.1651C103.797 70.182 103.824 70.1358 103.829 70.0624C103.835 69.989 103.883 69.9044 103.937 69.8743C103.99 69.8442 104.034 69.7633 104.034 69.6945C104.034 69.6257 104.076 69.5531 104.128 69.5331C104.18 69.5131 104.222 69.4616 104.222 69.4185C104.222 69.3755 104.279 69.2747 104.348 69.1947C104.417 69.1147 104.473 69.0144 104.473 68.9718C104.473 68.9294 104.515 68.8592 104.567 68.816C104.619 68.7728 104.662 68.6855 104.662 68.6221C104.662 68.5586 104.7 68.484 104.746 68.4562C104.793 68.4285 104.86 68.3205 104.896 68.2164C104.931 68.1123 104.986 68.0322 105.017 68.0383C105.048 68.0446 105.08 67.9757 105.088 67.8853C105.095 67.7949 105.144 67.674 105.195 67.6165C105.247 67.5592 105.289 67.4682 105.289 67.4144C105.289 67.3607 105.331 67.2813 105.384 67.2381C105.435 67.1949 105.478 67.11 105.478 67.0495C105.478 66.989 105.534 66.8674 105.603 66.7791C105.672 66.6908 105.729 66.5626 105.729 66.4943C105.729 66.4259 105.771 66.3346 105.823 66.2914C105.874 66.2481 105.917 66.1567 105.917 66.0882C105.917 66.0198 105.956 65.8883 106.004 65.7961C106.051 65.704 106.117 65.5434 106.149 65.4393C106.182 65.3351 106.235 65.2546 106.267 65.2603C106.299 65.2661 106.332 65.1712 106.341 65.0495C106.35 64.9278 106.399 64.7677 106.451 64.6937C106.503 64.6197 106.545 64.4857 106.545 64.3959C106.545 64.3061 106.586 64.1775 106.637 64.1101C106.687 64.0428 106.731 63.9166 106.733 63.8298C106.736 63.743 106.792 63.5584 106.859 63.4196C106.925 63.2807 106.981 63.0641 106.982 62.9381C106.983 62.8122 107.026 62.6738 107.078 62.6306C107.14 62.579 107.173 62.4382 107.173 62.2203C107.173 62.0025 107.205 61.8617 107.267 61.8101C107.323 61.7628 107.361 61.6247 107.361 61.4635C107.361 61.316 107.417 61.0175 107.486 60.8002C107.556 60.5829 107.612 60.2493 107.612 60.0589C107.612 59.7313 107.711 59.3226 107.903 58.8573C108.026 58.559 108.028 53.5603 107.905 53.2674C107.712 52.8077 107.612 52.3992 107.612 52.0741C107.612 51.8837 107.556 51.5501 107.486 51.3328C107.417 51.1155 107.361 50.817 107.361 50.6695C107.361 50.5083 107.323 50.3702 107.267 50.3229C107.205 50.2713 107.173 50.1305 107.173 49.9127C107.173 49.6948 107.14 49.554 107.078 49.5024C107.026 49.4592 106.983 49.3208 106.982 49.1949C106.981 49.0689 106.925 48.8523 106.859 48.7134C106.792 48.5746 106.736 48.39 106.733 48.3032C106.731 48.2164 106.687 48.0902 106.637 48.0229C106.586 47.9555 106.544 47.8277 106.543 47.7389C106.542 47.65 106.499 47.5222 106.449 47.4548C106.398 47.3874 106.357 47.2738 106.356 47.2024C106.356 47.1309 106.299 46.9872 106.231 46.8831C106.162 46.7789 106.105 46.6369 106.104 46.5675C106.102 46.4981 106.06 46.3861 106.009 46.3187C105.959 46.2513 105.917 46.1341 105.917 46.0582C105.917 45.9823 105.874 45.8849 105.823 45.8416C105.771 45.7984 105.729 45.7169 105.728 45.6604C105.728 45.6038 105.672 45.4724 105.603 45.3683C105.534 45.2641 105.478 45.1327 105.478 45.0762C105.478 45.0197 105.435 44.9381 105.384 44.8949C105.331 44.8517 105.289 44.7665 105.289 44.7055C105.289 44.6446 105.247 44.5594 105.195 44.5162C105.143 44.473 105.101 44.3959 105.101 44.3448C105.101 44.2938 105.045 44.1799 104.975 44.0916C104.906 44.0033 104.85 43.8812 104.85 43.8202C104.85 43.7591 104.807 43.6928 104.756 43.6728C104.704 43.6529 104.662 43.5845 104.662 43.5209C104.662 43.4574 104.63 43.3737 104.591 43.3349C104.519 43.2617 104.409 43.0823 104.273 42.8121C104.229 42.7253 104.158 42.6315 104.114 42.6038C104.07 42.576 104.034 42.4993 104.034 42.4334C104.034 42.3674 103.999 42.2907 103.955 42.2629C103.87 42.2082 103.763 42.0502 103.642 41.8022C103.6 41.7154 103.53 41.6217 103.486 41.5939C103.442 41.5661 103.406 41.5053 103.406 41.4587C103.406 41.412 103.363 41.3575 103.312 41.3375C103.26 41.3176 103.218 41.2648 103.217 41.2203C103.217 41.1759 103.119 41.0314 102.997 40.8993C102.877 40.7672 102.778 40.6453 102.778 40.6285C102.778 40.5724 102.497 40.1935 102.417 40.1422C102.374 40.1145 102.339 40.0653 102.339 40.033C102.339 40.0006 102.247 39.875 102.135 39.7539C102.023 39.6328 101.903 39.4973 101.868 39.4529C101.255 38.6647 99.5681 36.943 98.909 36.4329C98.6723 36.2495 98.4501 36.0688 98.4156 36.0314C98.2542 35.8571 97.6999 35.4274 97.6359 35.4274C97.5963 35.4274 97.548 35.3848 97.5279 35.3328C97.5078 35.2807 97.4526 35.2381 97.4043 35.2381C97.3559 35.2381 97.317 35.2124 97.317 35.181C97.317 35.1495 97.1827 35.0456 97.0188 34.95C96.855 34.8543 96.698 34.738 96.6704 34.6915C96.6428 34.645 96.5819 34.6069 96.5361 34.6069C96.4896 34.6069 96.435 34.5643 96.4156 34.5123C96.3955 34.4602 96.3208 34.4176 96.2498 34.4176C96.1783 34.4176 96.1061 34.3811 96.0891 34.3365C96.0722 34.292 95.9247 34.1854 95.7614 34.0999C95.5982 34.0143 95.4426 33.9087 95.4149 33.8653C95.3873 33.822 95.2944 33.7864 95.209 33.7864C95.123 33.7864 95.0377 33.7458 95.0188 33.6962C94.9994 33.6465 94.909 33.5754 94.8167 33.5382C94.7244 33.5009 94.5643 33.414 94.4607 33.3451C94.3572 33.2762 94.2297 33.2025 94.1783 33.1814C94.1262 33.1604 94.0559 33.1315 94.0213 33.1174C93.9868 33.1032 93.8173 33.0084 93.6447 32.9067C93.472 32.805 93.285 32.7199 93.2285 32.7176C93.172 32.7153 93.0941 32.6742 93.0546 32.6264C93.0151 32.5785 92.897 32.5221 92.7922 32.501C92.6874 32.4799 92.5587 32.4197 92.5066 32.3671C92.4545 32.3146 92.3465 32.2716 92.2668 32.2716C92.1871 32.2716 92.0866 32.229 92.0439 32.1769C92.0006 32.1249 91.8876 32.0823 91.7928 32.0823C91.6974 32.0823 91.5844 32.0397 91.5417 31.9876C91.4984 31.9355 91.3917 31.8929 91.3032 31.8929C91.2153 31.8929 91.0941 31.8479 91.0333 31.7929C90.973 31.7379 90.8085 31.6774 90.6685 31.6585C90.5285 31.6396 90.3817 31.5852 90.3421 31.5376C90.3026 31.4901 90.1645 31.4511 90.0351 31.4511C89.9021 31.4511 89.7652 31.4098 89.7213 31.3564C89.6779 31.3044 89.565 31.2618 89.4689 31.2618C89.3735 31.2618 89.1726 31.2056 89.022 31.1369C88.8713 31.0682 88.6491 31.0104 88.5285 31.0085C88.4074 31.0065 88.2379 30.9642 88.1519 30.9146C88.0653 30.865 87.8675 30.8232 87.7125 30.8218C87.5568 30.8203 87.349 30.7767 87.2498 30.7249C87.1494 30.6723 86.9065 30.6306 86.6987 30.6306C86.4947 30.6306 86.2222 30.5851 86.0942 30.5295C85.9441 30.4645 85.6026 30.4179 85.1387 30.399C84.7414 30.3829 84.2454 30.329 84.0358 30.2792C83.5587 30.1658 80.8305 30.1507 80.4928 30.2596C80.3722 30.2985 79.9058 30.3507 79.457 30.3755C79.0075 30.4004 78.5769 30.4547 78.4997 30.4962C78.3478 30.5779 77.2517 30.6986 77.1211 30.6481C77.0766 30.631 77.0408 30.5906 77.0408 30.5582C77.0408 30.4977 76.8317 30.1861 76.6641 29.9962C76.612 29.9376 76.4978 29.8079 76.4099 29.7078C76.3214 29.6079 76.0822 29.313 75.877 29.0527C75.4426 28.5002 73.1331 26.1733 72.7319 25.884C72.5813 25.7752 72.4582 25.6625 72.4582 25.6337C72.4582 25.6049 72.4256 25.5813 72.3861 25.5813C72.3465 25.5813 72.2122 25.4812 72.0879 25.359C71.7583 25.0348 71.7056 24.9905 71.3584 24.7482C71.1852 24.6272 70.9454 24.4374 70.8248 24.3265C70.7047 24.2157 70.5427 24.1087 70.465 24.0889C70.3874 24.069 70.3238 24.0301 70.3238 24.0022C70.3238 23.9511 69.5672 23.4154 69.2641 23.252C69.1737 23.2032 69.0903 23.1392 69.0788 23.1099C69.0672 23.0806 69.0319 23.0566 69.0003 23.0566C68.9686 23.0566 68.8862 22.9998 68.8172 22.9304C68.7481 22.861 68.6351 22.8041 68.5661 22.8041C68.497 22.8041 68.4405 22.7751 68.4405 22.7395C68.4405 22.7039 68.3769 22.6467 68.2993 22.6123C68.2216 22.5779 68.0733 22.4934 67.9697 22.4244C67.8662 22.3554 67.6967 22.256 67.5931 22.2035C67.4895 22.151 67.3483 22.0755 67.2792 22.0358C66.5422 21.6124 65.1404 20.9107 65.0316 20.9107C64.9815 20.9107 64.9054 20.8681 64.8624 20.816C64.8194 20.7639 64.7162 20.7213 64.633 20.7213C64.5498 20.7213 64.4655 20.6787 64.4457 20.6266C64.4258 20.5746 64.349 20.5318 64.275 20.5315C64.201 20.5313 64.0557 20.4747 63.9522 20.4057C63.8486 20.3367 63.6896 20.2801 63.5989 20.2799C63.5082 20.2797 63.3988 20.2369 63.3558 20.1848C63.3128 20.1327 63.2139 20.0901 63.1361 20.0901C63.0582 20.0901 62.9594 20.0475 62.9164 19.9955C62.8734 19.9434 62.7499 19.9006 62.6419 19.9004C62.5339 19.9002 62.3608 19.8435 62.2572 19.7746C62.1537 19.7056 61.9983 19.6481 61.912 19.6468C61.8257 19.6454 61.7002 19.6026 61.6332 19.5516C61.5662 19.5007 61.4233 19.459 61.3156 19.459C61.208 19.459 61.0651 19.4173 60.998 19.3663C60.9311 19.3153 60.7843 19.2727 60.6719 19.2716C60.5596 19.2705 60.3623 19.2128 60.2334 19.1434C60.1046 19.074 59.8982 19.0172 59.7749 19.0172C59.6515 19.0172 59.4957 18.9754 59.4287 18.9245C59.3599 18.8722 59.1684 18.831 58.9893 18.8298C58.8102 18.8287 58.6186 18.7874 58.5498 18.7352C58.4829 18.6842 58.2975 18.6416 58.138 18.6405C57.9785 18.6393 57.6711 18.5817 57.455 18.5122C57.231 18.4403 56.8891 18.386 56.6601 18.386C56.4391 18.386 56.1568 18.3434 56.0329 18.2913C55.9089 18.2393 55.6733 18.1967 55.5092 18.1967C55.3451 18.1967 55.0908 18.154 54.944 18.102C54.5576 17.9649 49.2025 17.9665 48.8235 18.1038Z" fill="white"/>
<path d="M44.181 52.8669C44.181 53.5552 44.2547 54.1131 44.3838 54.5223C44.5313 54.9315 44.7156 55.3779 44.9738 55.8614C45.0659 56.0102 45.1028 56.159 45.1028 56.2892C45.1028 56.4752 44.9922 56.6612 44.7525 56.8472L43.5911 57.6284C43.4251 57.7399 43.2592 57.7958 43.1117 57.7958C42.9274 57.7958 42.743 57.7027 42.5586 57.5353C42.3005 57.2563 42.0793 56.9588 41.8949 56.6612C41.7105 56.345 41.5262 55.9916 41.3234 55.5638C39.8854 57.275 38.0786 58.1305 35.9031 58.1305C34.3545 58.1305 33.1192 57.6841 32.2159 56.7914C31.3125 55.8986 30.8516 54.7083 30.8516 53.2203C30.8516 51.6394 31.4047 50.3561 32.5292 49.3889C33.6539 48.4217 35.1473 47.9382 37.0461 47.9382C37.673 47.9382 38.3182 47.9939 39.0004 48.087C39.6826 48.18 40.3831 48.3288 41.1206 48.4961V47.1384C41.1206 45.7249 40.8256 44.7391 40.2541 44.1626C39.6641 43.5859 38.6685 43.307 37.249 43.307C36.6037 43.307 35.94 43.3814 35.2579 43.5487C34.5757 43.7161 33.912 43.9208 33.2667 44.1811C32.9717 44.3113 32.7505 44.3857 32.6214 44.4229C32.4924 44.4601 32.4002 44.4787 32.3265 44.4787C32.0683 44.4787 31.9393 44.2927 31.9393 43.9021V42.9908C31.9393 42.6932 31.9762 42.47 32.0683 42.3398C32.1605 42.2096 32.3265 42.0794 32.5846 41.9492C33.2298 41.6144 34.0042 41.3354 34.9076 41.1123C35.8109 40.8705 36.7696 40.7589 37.7836 40.7589C39.9775 40.7589 41.5815 41.261 42.6139 42.2654C43.628 43.2698 44.1441 44.7949 44.1441 46.8408V52.8669H44.181ZM36.6958 55.6941C37.3043 55.6941 37.9311 55.5824 38.5948 55.3592C39.2585 55.1361 39.8485 54.7268 40.3463 54.1689C40.6412 53.8155 40.8625 53.4249 40.9731 52.9785C41.0837 52.5322 41.1575 51.9928 41.1575 51.3604V50.5793C40.6228 50.449 40.0513 50.3375 39.4613 50.2631C38.8714 50.1887 38.2998 50.1515 37.7283 50.1515C36.4931 50.1515 35.5897 50.3933 34.9813 50.8955C34.3729 51.3976 34.0779 52.1044 34.0779 53.0344C34.0779 53.9085 34.2992 54.5595 34.7601 55.0058C35.2025 55.4708 35.8478 55.6941 36.6958 55.6941ZM51.5002 57.7027C51.1684 57.7027 50.9472 57.6469 50.7997 57.5168C50.6521 57.4052 50.5231 57.1447 50.4125 56.7914L46.08 42.4142C45.9693 42.0422 45.914 41.8004 45.914 41.6703C45.914 41.3726 46.0615 41.2053 46.3565 41.2053H48.1633C48.5136 41.2053 48.7532 41.261 48.8822 41.3913C49.0297 41.5029 49.1404 41.7632 49.251 42.1166L52.3483 54.4293L55.2244 42.1166C55.3165 41.7447 55.4272 41.5029 55.5747 41.3913C55.7221 41.2797 55.9802 41.2053 56.3121 41.2053H57.787C58.1373 41.2053 58.377 41.261 58.5244 41.3913C58.6719 41.5029 58.801 41.7632 58.8747 42.1166L61.7877 54.5781L64.9772 42.1166C65.0878 41.7447 65.2169 41.5029 65.3459 41.3913C65.4934 41.2797 65.733 41.2053 66.0649 41.2053H67.7795C68.0744 41.2053 68.2404 41.3541 68.2404 41.6703C68.2404 41.7632 68.222 41.8562 68.2035 41.9678C68.1851 42.0794 68.1482 42.2282 68.0744 42.4328L63.6313 56.81C63.5207 57.1819 63.3916 57.4237 63.2442 57.5353C63.0967 57.6469 62.857 57.7214 62.5436 57.7214H60.958C60.6077 57.7214 60.3681 57.6655 60.2206 57.5353C60.0731 57.4052 59.944 57.1634 59.8703 56.7914L57.0127 44.7949L54.1735 56.7728C54.0813 57.1447 53.9707 57.3865 53.8232 57.5168C53.6757 57.6469 53.4176 57.7027 53.0857 57.7027H51.5002ZM75.1907 58.2049C74.2321 58.2049 73.2735 58.0933 72.3514 57.8702C71.43 57.6469 70.7112 57.4052 70.2315 57.1262C69.9365 56.9588 69.7337 56.7728 69.66 56.6054C69.5862 56.438 69.5494 56.252 69.5494 56.0846V55.1361C69.5494 54.7455 69.6968 54.5595 69.9734 54.5595C70.084 54.5595 70.1947 54.5781 70.3053 54.6153C70.4155 54.6525 70.5816 54.7268 70.7663 54.8013C71.3928 55.0802 72.075 55.3035 72.7945 55.4523C73.5319 55.601 74.2507 55.6754 74.9881 55.6754C76.1493 55.6754 77.0528 55.4708 77.6799 55.0617C78.3063 54.6525 78.6385 54.0573 78.6385 53.2947C78.6385 52.774 78.4724 52.3462 78.1409 51.9928C77.8088 51.6394 77.1823 51.3232 76.2789 51.0256L73.6056 50.1887C72.2597 49.7609 71.2639 49.1285 70.6554 48.2916C70.0471 47.4732 69.7337 46.5618 69.7337 45.5947C69.7337 44.8135 69.8996 44.1254 70.2315 43.5302C70.563 42.935 71.0061 42.4142 71.5588 42.005C72.1122 41.5772 72.7387 41.261 73.4761 41.0379C74.2135 40.8147 74.9881 40.7217 75.7992 40.7217C76.2051 40.7217 76.6289 40.7403 77.0348 40.7961C77.4587 40.8519 77.846 40.9263 78.2326 41.0007C78.6013 41.0936 78.9521 41.1867 79.2835 41.2982C79.6157 41.4098 79.8735 41.5214 80.0582 41.6331C80.3159 41.7818 80.5006 41.9306 80.6109 42.098C80.7218 42.2468 80.7769 42.4514 80.7769 42.7118V43.5859C80.7769 43.9765 80.6295 44.1811 80.3531 44.1811C80.2056 44.1811 79.9658 44.1067 79.6522 43.9579C78.6013 43.4743 77.4215 43.2326 76.1128 43.2326C75.0618 43.2326 74.2321 43.3999 73.6608 43.7533C73.0894 44.1067 72.7945 44.6461 72.7945 45.4087C72.7945 45.9294 72.9785 46.3758 73.3472 46.7292C73.7159 47.0826 74.3981 47.436 75.3754 47.7521L77.9935 48.5891C79.3208 49.0169 80.2794 49.6121 80.8507 50.3747C81.4227 51.1373 81.699 52.0114 81.699 52.9785C81.699 53.7783 81.5329 54.5037 81.2194 55.1361C80.8879 55.7685 80.4455 56.3264 79.8735 56.7728C79.3022 57.2378 78.6199 57.5725 77.8274 57.8143C76.9976 58.0747 76.1314 58.2049 75.1907 58.2049Z" fill="#252F3E"/>
<path fill-rule="evenodd" clip-rule="evenodd" d="M78.6792 67.1913C72.6092 71.7112 63.7893 74.1107 56.2059 74.1107C45.5781 74.1107 36.002 70.1488 28.7692 63.5642C28.1972 63.0434 28.7139 62.3366 29.3965 62.7457C37.2198 67.3215 46.8697 70.093 56.8516 70.093C63.5863 70.093 70.9849 68.6793 77.7937 65.7777C78.8082 65.3127 79.6758 66.4472 78.6792 67.1913Z" fill="#FF9900"/>
<path fill-rule="evenodd" clip-rule="evenodd" d="M81.2151 64.3127C80.4382 63.3119 76.0745 63.8309 74.0955 64.0718C73.5038 64.146 73.4112 63.627 73.9476 63.2378C77.4238 60.7914 83.1381 61.4956 83.8038 62.3111C84.4694 63.1451 83.6185 68.872 80.3643 71.6149C79.8652 72.0412 79.3841 71.8188 79.606 71.2628C80.3456 69.4279 81.9914 65.295 81.2151 64.3127Z" fill="#FF9900"/>
</g>
<defs>
<clipPath id="clip0_21_7898">
<rect width="100" height="64" fill="white" transform="translate(8 18)"/>
</clipPath>
</defs>
</svg>
