<svg width="32" height="32" viewBox="0 0 32 32" fill="none" xmlns="http://www.w3.org/2000/svg">
<path d="M20.8705 12.0391C15.9966 12.0391 12.0312 16.0044 12.0312 20.8783C12.0312 25.7523 15.9966 29.7176 20.8705 29.7176C25.7445 29.7176 29.7098 25.7523 29.7098 20.8783C29.7098 16.0044 25.7445 12.0391 20.8705 12.0391ZM20.8705 20.0748C22.1999 20.0748 23.2813 21.1562 23.2813 22.4855C23.2813 23.5317 22.6074 24.4153 21.6741 24.7482V26.5033H20.067V24.7482C19.1336 24.4153 18.4598 23.5317 18.4598 22.4855H20.067C20.067 22.9288 20.4272 23.2891 20.8705 23.2891C21.3139 23.2891 21.6741 22.9288 21.6741 22.4855C21.6741 22.0421 21.3139 21.6819 20.8705 21.6819C19.5412 21.6819 18.4598 20.6005 18.4598 19.2712C18.4598 18.225 19.1336 17.3413 20.067 17.0085V15.2533H21.6741V17.0085C22.6074 17.3413 23.2813 18.225 23.2813 19.2712H21.6741C21.6741 18.8278 21.3139 18.4676 20.8705 18.4676C20.4272 18.4676 20.067 18.8278 20.067 19.2712C20.067 19.7146 20.4272 20.0748 20.8705 20.0748Z" fill="url(#paint0_linear_21_7568)"/>
<path d="M11.2277 12.0391C16.1841 12.0391 20.067 9.92106 20.067 7.21763C20.067 4.51421 16.1841 2.28906 11.2277 2.28906C6.27125 2.28906 2.28125 4.51421 2.28125 7.21763C2.28125 9.92106 6.27125 12.0391 11.2277 12.0391Z" fill="url(#paint1_linear_21_7568)"/>
<path d="M2.28125 20.375V21.6843C2.28125 24.3878 6.27125 26.5058 11.2277 26.5058C11.5088 26.5058 11.7812 26.4799 12.058 26.4663C11.4416 25.4972 10.9819 24.4218 10.7113 23.2721C7.12705 23.1732 4.01493 22.0718 2.28125 20.375Z" fill="url(#paint2_linear_21_7568)"/>
<path d="M10.4627 21.6445C10.4443 21.3918 10.4241 21.1393 10.4241 20.8819C10.4241 20.0442 10.5339 19.2334 10.7211 18.4523C7.13241 18.355 4.01648 17.2531 2.28125 15.5547V16.864C2.28125 19.424 5.88457 21.4359 10.4627 21.6445Z" fill="url(#paint3_linear_21_7568)"/>
<path d="M11.2277 16.8573C11.2285 16.8573 11.2292 16.8572 11.2301 16.8572C11.7601 15.5906 12.5305 14.4488 13.4873 13.4921C12.7615 13.5838 12.0115 13.643 11.2277 13.643C7.41248 13.643 4.09871 12.5053 2.28125 10.7266V12.0359C2.28125 14.7393 6.27125 16.8573 11.2277 16.8573Z" fill="url(#paint4_linear_21_7568)"/>
<defs>
<linearGradient id="paint0_linear_21_7568" x1="13.4723" y1="6.54402" x2="31.3332" y2="9.11889" gradientUnits="userSpaceOnUse">
<stop stop-color="#DEFB9D"/>
<stop offset="0.364794" stop-color="#71F79E"/>
<stop offset="0.7" stop-color="#38F9D7"/>
<stop offset="1" stop-color="#89C4FE"/>
</linearGradient>
<linearGradient id="paint1_linear_21_7568" x1="3.73106" y1="-0.741537" x2="20.8872" y2="3.77015" gradientUnits="userSpaceOnUse">
<stop stop-color="#DEFB9D"/>
<stop offset="0.364794" stop-color="#71F79E"/>
<stop offset="0.7" stop-color="#38F9D7"/>
<stop offset="1" stop-color="#89C4FE"/>
</linearGradient>
<linearGradient id="paint2_linear_21_7568" x1="3.07821" y1="18.4694" x2="12.6549" y2="20.671" gradientUnits="userSpaceOnUse">
<stop stop-color="#DEFB9D"/>
<stop offset="0.364794" stop-color="#71F79E"/>
<stop offset="0.7" stop-color="#38F9D7"/>
<stop offset="1" stop-color="#89C4FE"/>
</linearGradient>
<linearGradient id="paint3_linear_21_7568" x1="2.96922" y1="13.6618" x2="11.3392" y2="15.334" gradientUnits="userSpaceOnUse">
<stop stop-color="#DEFB9D"/>
<stop offset="0.364794" stop-color="#71F79E"/>
<stop offset="0.7" stop-color="#38F9D7"/>
<stop offset="1" stop-color="#89C4FE"/>
</linearGradient>
<linearGradient id="paint4_linear_21_7568" x1="3.19471" y1="8.82093" x2="14.0012" y2="11.6685" gradientUnits="userSpaceOnUse">
<stop stop-color="#DEFB9D"/>
<stop offset="0.364794" stop-color="#71F79E"/>
<stop offset="0.7" stop-color="#38F9D7"/>
<stop offset="1" stop-color="#89C4FE"/>
</linearGradient>
</defs>
</svg>
