<svg width="40" height="40" viewBox="0 0 40 40" fill="none" xmlns="http://www.w3.org/2000/svg">
<path d="M13.125 30.625C13.8154 30.625 14.375 30.0654 14.375 29.375C14.375 28.6846 13.8154 28.125 13.125 28.125C12.4346 28.125 11.875 28.6846 11.875 29.375C11.875 30.0654 12.4346 30.625 13.125 30.625Z" fill="url(#paint0_linear_21_7583)"/>
<path d="M21.8425 26.2494C21.7044 24.3069 20.9331 22.5406 19.7294 21.1531L17.9856 22.8969L17.1019 22.0131L18.8456 20.2694C17.4581 19.0656 15.6913 18.2944 13.7494 18.1562V20.6244H12.4994V18.1562C10.5569 18.2944 8.79063 19.0656 7.40313 20.2694L9.14688 22.0131L8.26313 22.8969L6.51938 21.1531C5.31563 22.5406 4.54438 24.3075 4.40625 26.2494H6.87438V27.4994H4.40625C4.54438 29.4419 5.31563 31.2081 6.51938 32.5956L8.26313 30.8519L9.14688 31.7356L7.40313 33.4794C8.79063 34.6831 10.5575 35.4544 12.4994 35.5925V33.1244H13.7494V35.5925C15.6919 35.4544 17.4581 34.6831 18.8456 33.4794L17.1019 31.7356L17.9856 30.8519L19.7294 32.5956C20.9331 31.2081 21.7044 29.4413 21.8425 27.4994H19.3744V26.2494H21.8425ZM13.1244 31.8744C11.7456 31.8744 10.6244 30.7531 10.6244 29.3744C10.6244 28.66 10.9294 28.0188 11.4113 27.5631L11.82 23.0656C11.8819 22.3862 12.4425 21.8744 13.1244 21.8744C13.8063 21.8744 14.3669 22.3862 14.4281 23.065L14.8369 27.5625C15.3194 28.0188 15.6244 28.66 15.6244 29.3744C15.6244 30.7531 14.5031 31.8744 13.1244 31.8744Z" fill="url(#paint1_linear_21_7583)"/>
<path d="M26.875 9.375C31.0171 9.375 34.375 8.25571 34.375 6.875C34.375 5.49429 31.0171 4.375 26.875 4.375C22.7329 4.375 19.375 5.49429 19.375 6.875C19.375 8.25571 22.7329 9.375 26.875 9.375Z" fill="url(#paint2_linear_21_7583)"/>
<path d="M13.125 15.625C6.92187 15.625 1.875 20.6719 1.875 26.875C1.875 33.0781 6.92187 38.125 13.125 38.125C19.3281 38.125 24.375 33.0781 24.375 26.875C24.375 20.6719 19.3281 15.625 13.125 15.625ZM13.125 36.875C7.61125 36.875 3.125 32.3887 3.125 26.875C3.125 21.3613 7.61125 16.875 13.125 16.875C18.6387 16.875 23.125 21.3613 23.125 26.875C23.125 32.3887 18.6387 36.875 13.125 36.875Z" fill="url(#paint3_linear_21_7583)"/>
<path d="M13.5241 26.9159L13.1841 23.1797C13.1784 23.1172 13.0716 23.1172 13.0666 23.1797L12.7266 26.9159C12.8572 26.8947 12.9891 26.8753 13.1253 26.8753C13.2616 26.8753 13.3934 26.8947 13.5241 26.9159V26.9159Z" fill="url(#paint4_linear_21_7583)"/>
<path d="M18.5381 8.07625C18.275 7.71188 18.125 7.3125 18.125 6.875C18.125 4.43938 22.6331 3.125 26.875 3.125C31.1169 3.125 35.625 4.43938 35.625 6.875C35.625 7.3125 35.475 7.71188 35.2119 8.07625C37.0519 7.3725 38.125 6.47625 38.125 5.625C38.125 3.85125 33.505 1.875 26.875 1.875C20.245 1.875 15.625 3.85125 15.625 5.625C15.625 6.47625 16.6981 7.3725 18.5381 8.07625Z" fill="url(#paint5_linear_21_7583)"/>
<path d="M15.625 12.8984V14.6253C18.5563 15.2228 21.1106 16.8541 22.9075 19.1147C24.1763 19.2847 25.5087 19.3734 26.875 19.3734C33.505 19.3734 38.125 17.3972 38.125 15.6234V12.8984C35.9606 14.6803 31.3175 15.6234 26.875 15.6234C22.4325 15.6234 17.7894 14.6803 15.625 12.8984Z" fill="url(#paint6_linear_21_7583)"/>
<path d="M23.8438 20.4791C24.5475 21.6541 25.0744 22.9466 25.3613 24.3297C25.8856 24.3559 26.3906 24.3734 26.8725 24.3734C33.5025 24.3734 38.1225 22.3972 38.1225 20.6234V17.8984C35.9581 19.6803 31.315 20.6234 26.8725 20.6234C25.8413 20.6234 24.8281 20.5728 23.8438 20.4791V20.4791ZM35.595 20.1066L36.2975 21.1403C35.99 21.3491 35.5719 21.5659 35.0888 21.7659L34.61 20.6109C35.1231 20.3991 35.4288 20.2197 35.595 20.1066V20.1066ZM33.49 21.0066L33.8537 22.2028C33.4619 22.3216 33.04 22.4328 32.6006 22.5316L32.3263 21.3122C32.735 21.2203 33.1269 21.1172 33.49 21.0066V21.0066ZM31.1362 21.5434L31.3362 22.7778C30.9344 22.8428 30.5113 22.9016 30.0669 22.9509L29.9288 21.7084C30.3513 21.6609 30.7537 21.6053 31.1362 21.5434V21.5434Z" fill="url(#paint7_linear_21_7583)"/>
<path d="M15.625 7.89844V10.6234C15.625 12.3972 20.245 14.3734 26.875 14.3734C33.505 14.3734 38.125 12.3972 38.125 10.6234V7.89844C35.9606 9.68031 31.3175 10.6234 26.875 10.6234C22.4325 10.6234 17.7894 9.68031 15.625 7.89844ZM35.5975 10.1091L36.3 11.1428C35.9925 11.3516 35.5744 11.5684 35.0912 11.7684L34.6125 10.6134C35.1256 10.4016 35.4313 10.2216 35.5975 10.1091V10.1091ZM33.4925 11.0091L33.8562 12.2053C33.4644 12.3241 33.0425 12.4353 32.6031 12.5341L32.3288 11.3147C32.7375 11.2228 33.1294 11.1197 33.4925 11.0091ZM31.1387 11.5459L31.3387 12.7803C30.9369 12.8453 30.5138 12.9041 30.0694 12.9534L29.9312 11.7109C30.3537 11.6634 30.7562 11.6078 31.1387 11.5459V11.5459Z" fill="url(#paint8_linear_21_7583)"/>
<defs>
<linearGradient id="paint0_linear_21_7583" x1="12.0788" y1="27.3479" x2="14.6046" y2="27.712" gradientUnits="userSpaceOnUse">
<stop stop-color="#DEFB9D"/>
<stop offset="0.364794" stop-color="#71F79E"/>
<stop offset="0.7" stop-color="#38F9D7"/>
<stop offset="1" stop-color="#89C4FE"/>
</linearGradient>
<linearGradient id="paint1_linear_21_7583" x1="5.82757" y1="12.7365" x2="23.4436" y2="15.2761" gradientUnits="userSpaceOnUse">
<stop stop-color="#DEFB9D"/>
<stop offset="0.364794" stop-color="#71F79E"/>
<stop offset="0.7" stop-color="#38F9D7"/>
<stop offset="1" stop-color="#89C4FE"/>
</linearGradient>
<linearGradient id="paint2_linear_21_7583" x1="20.5977" y1="2.82085" x2="33.6298" y2="8.45706" gradientUnits="userSpaceOnUse">
<stop stop-color="#DEFB9D"/>
<stop offset="0.364794" stop-color="#71F79E"/>
<stop offset="0.7" stop-color="#38F9D7"/>
<stop offset="1" stop-color="#89C4FE"/>
</linearGradient>
<linearGradient id="paint3_linear_21_7583" x1="3.70909" y1="8.63131" x2="26.4411" y2="11.9084" gradientUnits="userSpaceOnUse">
<stop stop-color="#DEFB9D"/>
<stop offset="0.364794" stop-color="#71F79E"/>
<stop offset="0.7" stop-color="#38F9D7"/>
<stop offset="1" stop-color="#89C4FE"/>
</linearGradient>
<linearGradient id="paint4_linear_21_7583" x1="12.7916" y1="21.9569" x2="13.6133" y2="21.9819" gradientUnits="userSpaceOnUse">
<stop stop-color="#DEFB9D"/>
<stop offset="0.364794" stop-color="#71F79E"/>
<stop offset="0.7" stop-color="#38F9D7"/>
<stop offset="1" stop-color="#89C4FE"/>
</linearGradient>
<linearGradient id="paint5_linear_21_7583" x1="17.4591" y1="-0.0525393" x2="35.6787" y2="9.47752" gradientUnits="userSpaceOnUse">
<stop stop-color="#DEFB9D"/>
<stop offset="0.364794" stop-color="#71F79E"/>
<stop offset="0.7" stop-color="#38F9D7"/>
<stop offset="1" stop-color="#89C4FE"/>
</linearGradient>
<linearGradient id="paint6_linear_21_7583" x1="17.4591" y1="10.8858" x2="36.0085" y2="20.1782" gradientUnits="userSpaceOnUse">
<stop stop-color="#DEFB9D"/>
<stop offset="0.364794" stop-color="#71F79E"/>
<stop offset="0.7" stop-color="#38F9D7"/>
<stop offset="1" stop-color="#89C4FE"/>
</linearGradient>
<linearGradient id="paint7_linear_21_7583" x1="25.0077" y1="15.8858" x2="38.3818" y2="20.1376" gradientUnits="userSpaceOnUse">
<stop stop-color="#DEFB9D"/>
<stop offset="0.364794" stop-color="#71F79E"/>
<stop offset="0.7" stop-color="#38F9D7"/>
<stop offset="1" stop-color="#89C4FE"/>
</linearGradient>
<linearGradient id="paint8_linear_21_7583" x1="17.4591" y1="5.88581" x2="36.0085" y2="15.1782" gradientUnits="userSpaceOnUse">
<stop stop-color="#DEFB9D"/>
<stop offset="0.364794" stop-color="#71F79E"/>
<stop offset="0.7" stop-color="#38F9D7"/>
<stop offset="1" stop-color="#89C4FE"/>
</linearGradient>
</defs>
</svg>
