<svg width="180" height="90" viewBox="0 0 180 90" fill="none" xmlns="http://www.w3.org/2000/svg">
<g opacity="0.9" clip-path="url(#clip0_21_8001)">
<path d="M96.3956 40.555C96.3956 37.5425 96.4471 34.7377 96.6017 32.1406L88.7169 33.6469V34.3741L89.4899 34.478C90.0567 34.5299 90.4175 34.7377 90.6236 35.0493C90.8298 35.4129 90.9844 35.9323 91.0875 36.7114C91.1906 38.2177 91.2936 41.6458 91.2421 47.0476C91.2421 52.3975 91.1906 55.7736 91.0875 57.0721C93.9219 57.6954 96.1379 57.9551 97.787 57.9551C100.879 57.9551 103.301 57.0721 105.053 55.2542C106.806 53.4882 107.733 50.9951 107.733 47.9306C107.733 45.4894 107.063 43.4637 105.723 41.8535C104.383 40.2434 102.683 39.4643 100.673 39.4643C99.333 39.4643 97.9416 39.8278 96.3956 40.555ZM96.5502 56.5527C96.4471 54.8906 96.3441 49.9044 96.3441 41.7496C96.8079 41.5938 97.4263 41.49 98.1993 41.49C99.4361 41.49 100.415 42.1132 101.137 43.4117C101.858 44.7103 102.219 46.2685 102.219 48.2423C102.219 50.6835 101.807 52.6572 100.982 54.3193C100.158 55.9295 99.1269 56.7605 97.8385 56.7605C97.4263 56.6567 97.014 56.6047 96.5502 56.5527ZM59.1359 32.66H38.5219V33.6988L39.6041 33.8027C40.4287 33.9585 40.9956 34.2702 41.3563 34.7377C41.717 35.2571 41.9232 36.0881 41.9747 37.2308C42.387 42.8404 42.387 48.0864 41.9747 52.9169C41.8716 54.0596 41.6655 54.8906 41.3563 55.41C40.9956 55.9295 40.4287 56.2411 39.6041 56.3449L38.5219 56.5008V57.5396H51.8179V56.5008L50.4264 56.3969C49.6019 56.293 49.035 55.9295 48.6743 55.462C48.3136 54.9425 48.1074 54.1115 48.0559 52.9689C47.9012 50.8912 47.7982 48.5019 47.7982 45.8529L50.581 45.9049C52.0755 45.9569 53.1063 47.0995 53.6216 49.3849H54.6523V40.9186H53.6216C53.1063 43.1521 52.1271 44.2947 50.581 44.3466L47.7982 44.3986C47.7982 39.724 47.9012 36.3998 48.0559 34.3741H52.1271C55.013 34.3741 56.9713 36.2439 58.1052 39.9837L59.342 39.6201L59.1359 32.66ZM56.7137 48.6577C56.7137 51.3587 57.4867 53.5922 58.9813 55.3581C60.4757 57.1241 62.6918 57.9551 65.4746 57.9551C68.2575 57.9551 70.525 57.0721 72.1742 55.2542C73.8233 53.4882 74.5963 51.2548 74.5963 48.5539C74.5963 45.8529 73.8233 43.6195 72.3288 41.8535C70.8342 40.0876 68.6183 39.2565 65.8353 39.2565C63.0525 39.2565 60.7849 40.1395 59.1359 41.9574C57.4867 43.7234 56.7137 45.9569 56.7137 48.6577ZM68.206 42.7365C68.8244 44.2428 69.0821 46.2166 69.0821 48.6058C69.0821 54.1115 67.9483 56.8125 65.7323 56.8125C64.5985 56.8125 63.7225 56.0333 63.1041 54.4751C62.4857 52.9169 62.2279 50.9431 62.2279 48.6058C62.2279 43.1521 63.3617 40.4511 65.5777 40.4511C66.7114 40.3992 67.5876 41.1783 68.206 42.7365ZM111.753 55.3581C113.454 57.0721 115.618 57.9551 118.195 57.9551C119.792 57.9551 121.184 57.6435 122.421 56.9683C123.658 56.345 124.637 55.5658 125.307 54.6309L124.791 54.0076C123.658 54.8906 122.369 55.3062 120.875 55.3062C118.813 55.3062 117.216 54.6309 116.133 53.2285C115 51.8261 114.484 50.0602 114.587 47.7748H125.616C125.616 45.2816 124.997 43.2559 123.709 41.6458C122.421 40.0875 120.617 39.3084 118.298 39.3084C115.412 39.3084 113.196 40.2434 111.598 42.0613C110.001 43.8792 109.228 46.1127 109.228 48.7616C109.228 51.4626 110.052 53.6441 111.753 55.3581ZM115.567 42.321C116.133 41.0744 116.855 40.4511 117.834 40.4511C119.38 40.4511 120.153 42.4249 120.153 46.4243L114.69 46.5282C114.742 44.9699 115 43.5675 115.567 42.321ZM139.478 40.2434C138.087 39.6201 136.336 39.2565 134.222 39.2565C132.058 39.2565 130.357 39.8278 129.069 40.9186C127.78 42.0093 127.11 43.3598 127.11 44.9699C127.11 46.3724 127.523 47.4631 128.296 48.2423C129.069 49.0214 130.305 49.6965 131.903 50.2679C133.346 50.7873 134.377 51.3068 134.892 51.7742C135.408 52.2936 135.716 52.865 135.716 53.6441C135.716 54.3713 135.459 55.0465 134.892 55.5658C134.377 56.1372 133.655 56.3969 132.728 56.3969C130.46 56.3969 128.759 54.7348 127.574 51.4106L126.698 51.6703L126.904 56.8644C128.759 57.5916 130.821 57.9551 133.089 57.9551C135.459 57.9551 137.262 57.4358 138.603 56.3449C139.943 55.3062 140.612 53.7999 140.612 51.93C140.612 50.6835 140.303 49.6446 139.633 48.8655C138.963 48.0864 137.882 47.4111 136.336 46.7879C134.635 46.1646 133.449 45.5933 132.831 45.0738C132.212 44.5545 131.903 43.9312 131.903 43.1521C131.903 42.373 132.109 41.7496 132.573 41.2302C133.037 40.7108 133.604 40.5031 134.325 40.5031C136.386 40.5031 137.882 42.0093 138.808 44.9699L139.685 44.7103L139.478 40.2434ZM89.9021 39.7759C89.1807 39.4123 88.4077 39.2565 87.5316 39.2565C86.6555 39.2565 85.7793 39.6201 84.8002 40.3472C83.8211 41.0744 83.0996 42.0613 82.5327 43.4117L82.5842 39.2565L74.7509 40.8147V41.5419L75.5239 41.5938C76.5031 41.6977 77.07 42.4768 77.1731 43.8792C77.4823 47.0995 77.4823 50.5277 77.1731 54.1634C77.07 55.5658 76.5031 56.293 75.5239 56.4488L74.7509 56.5527V57.5396H85.6763V56.5527L84.2849 56.4488C83.3057 56.345 82.7388 55.5658 82.6358 54.1634C82.3266 51.1509 82.275 47.9306 82.5327 44.6064C82.8419 44.087 83.5119 43.7754 84.5425 43.6715C85.5732 43.5675 86.7586 43.8792 87.9954 44.6064L89.9021 39.7759Z" fill="#E9E9EA"/>
</g>
<defs>
<clipPath id="clip0_21_8001">
<rect width="103.188" height="26" fill="white" transform="translate(38.0063 32)"/>
</clipPath>
</defs>
</svg>
