<svg width="130" height="30" viewBox="0 0 130 30" fill="none" xmlns="http://www.w3.org/2000/svg">
<path d="M40.9506 11.7031H32.2025C32.1767 11.7031 32.1512 11.7082 32.1275 11.7181C32.1037 11.728 32.0822 11.7426 32.0641 11.7609C32.046 11.7792 32.0317 11.8009 32.022 11.8247C32.0124 11.8486 32.0075 11.8742 32.0078 11.8999V22.6031C32.0075 22.6288 32.0124 22.6544 32.022 22.6783C32.0317 22.7021 32.046 22.7238 32.0641 22.7421C32.0822 22.7604 32.1037 22.775 32.1275 22.7849C32.1512 22.7948 32.1767 22.7999 32.2025 22.7999H40.9506C40.9763 22.7999 41.0018 22.7948 41.0256 22.7849C41.0494 22.775 41.0709 22.7604 41.089 22.7421C41.1071 22.7238 41.1214 22.7021 41.1311 22.6783C41.1407 22.6544 41.1455 22.6288 41.1452 22.6031V21.777C41.1452 21.7514 41.1402 21.7261 41.1304 21.7025C41.1206 21.6789 41.1063 21.6574 41.0882 21.6393C41.0702 21.6212 41.0487 21.6069 41.0251 21.5971C41.0015 21.5873 40.9762 21.5823 40.9506 21.5823H33.3163V17.4429H40.5375C40.5633 17.4429 40.5888 17.4378 40.6125 17.4279C40.6363 17.418 40.6578 17.4034 40.6759 17.3851C40.694 17.3668 40.7083 17.3451 40.718 17.3212C40.7276 17.2974 40.7325 17.2718 40.7322 17.2461V16.4675C40.7325 16.4418 40.7276 16.4162 40.718 16.3924C40.7083 16.3685 40.694 16.3468 40.6759 16.3285C40.6578 16.3102 40.6363 16.2957 40.6125 16.2857C40.5888 16.2758 40.5633 16.2707 40.5375 16.2707H33.3163V12.9207H40.9506C40.9763 12.9207 41.0018 12.9156 41.0256 12.9057C41.0494 12.8958 41.0709 12.8812 41.089 12.8629C41.1071 12.8446 41.1214 12.8229 41.1311 12.799C41.1407 12.7752 41.1455 12.7496 41.1452 12.7239V11.8934C41.1441 11.8425 41.1231 11.7941 41.0867 11.7586C41.0503 11.723 41.0015 11.7031 40.9506 11.7031Z" fill="white"/>
<path d="M52.5304 21.5737H45.2637V11.8999C45.2637 11.8478 45.243 11.7977 45.206 11.7608C45.1691 11.7239 45.1191 11.7031 45.0669 11.7031H44.1499C44.0977 11.7031 44.0476 11.7239 44.0107 11.7608C43.9738 11.7977 43.9531 11.8478 43.9531 11.8999V22.6032C43.9531 22.6554 43.9738 22.7054 44.0107 22.7423C44.0476 22.7792 44.0977 22.8 44.1499 22.8H52.5304C52.5561 22.8 52.5816 22.7949 52.6054 22.7849C52.6291 22.775 52.6507 22.7605 52.6688 22.7422C52.6869 22.7239 52.7012 22.7022 52.7108 22.6783C52.7205 22.6544 52.7253 22.6289 52.725 22.6032V21.7619C52.7233 21.7114 52.7021 21.6635 52.6658 21.6284C52.6294 21.5933 52.5809 21.5737 52.5304 21.5737Z" fill="white"/>
<path d="M64.185 11.7031H55.439C55.3869 11.7031 55.3368 11.7238 55.2999 11.7607C55.263 11.7976 55.2422 11.8477 55.2422 11.8999V22.6031C55.2422 22.6553 55.263 22.7054 55.2999 22.7423C55.3368 22.7792 55.3869 22.7999 55.439 22.7999H64.185C64.2372 22.7999 64.2873 22.7792 64.3242 22.7423C64.3611 22.7054 64.3818 22.6553 64.3818 22.6031V21.777C64.3818 21.7512 64.3767 21.7257 64.3668 21.702C64.3569 21.6782 64.3423 21.6567 64.324 21.6385C64.3057 21.6204 64.284 21.6062 64.2602 21.5965C64.2363 21.5868 64.2108 21.582 64.185 21.5823H56.5507V17.4429H63.7719C63.8241 17.4429 63.8742 17.4222 63.9111 17.3853C63.948 17.3483 63.9687 17.2983 63.9687 17.2461V16.4675C63.9687 16.4153 63.948 16.3653 63.9111 16.3284C63.8742 16.2914 63.8241 16.2707 63.7719 16.2707H56.5507V12.9207H63.999C64.0998 12.9207 64.1965 12.881 64.2682 12.8101C64.3398 12.7392 64.3807 12.643 64.3818 12.5422V11.8934C64.3801 11.8423 64.3587 11.7939 64.3219 11.7584C64.2852 11.7229 64.2361 11.7031 64.185 11.7031Z" fill="white"/>
<path d="M77.2911 11.7031H76.3287C76.291 11.7032 76.2541 11.7141 76.2223 11.7344C76.1905 11.7547 76.1652 11.7836 76.1492 11.8177L71.9233 21.1498L67.7125 11.8177C67.6971 11.7836 67.6722 11.7546 67.6407 11.7343C67.6093 11.7139 67.5726 11.7031 67.5352 11.7031H66.5706C66.538 11.7033 66.506 11.7115 66.4774 11.7269C66.4487 11.7424 66.4243 11.7647 66.4062 11.7918C66.3883 11.8195 66.3777 11.8512 66.3754 11.8842C66.3732 11.9171 66.3793 11.95 66.3932 11.9799L71.2399 22.6853C71.2559 22.7194 71.2812 22.7483 71.313 22.7686C71.3448 22.7889 71.3817 22.7998 71.4194 22.7999H72.4272C72.4649 22.7998 72.5018 22.7889 72.5336 22.7686C72.5654 22.7483 72.5907 22.7194 72.6067 22.6853L77.4685 11.9799C77.4824 11.9504 77.4886 11.9178 77.4863 11.8852C77.484 11.8526 77.4734 11.8212 77.4555 11.7939C77.4378 11.7663 77.4135 11.7435 77.3848 11.7276C77.3561 11.7118 77.3239 11.7033 77.2911 11.7031Z" fill="white"/>
<path d="M83.9722 11.8177C83.9568 11.7836 83.9319 11.7546 83.9004 11.7343C83.8689 11.7139 83.8323 11.7031 83.7948 11.7031H82.7849C82.7474 11.7031 82.7107 11.7139 82.6793 11.7343C82.6478 11.7546 82.6229 11.7836 82.6075 11.8177L77.7587 22.5231C77.7457 22.5529 77.7402 22.5855 77.7429 22.618C77.7455 22.6505 77.7562 22.6818 77.7739 22.7091C77.7912 22.737 77.8155 22.76 77.8442 22.7759C77.873 22.7918 77.9054 22.8001 77.9382 22.7999H78.9006C78.9383 22.7998 78.9752 22.7889 79.007 22.7686C79.0388 22.7483 79.0642 22.7194 79.0801 22.6853L79.8025 21.0871H86.788L87.5168 22.6853C87.532 22.7196 87.5569 22.7487 87.5884 22.7691C87.6199 22.7895 87.6567 22.8002 87.6942 22.7999H88.6566C88.6897 22.7998 88.7223 22.7915 88.7514 22.7756C88.7805 22.7598 88.8051 22.7369 88.8231 22.7091C88.8405 22.6816 88.8508 22.6502 88.853 22.6177C88.8553 22.5853 88.8495 22.5527 88.8361 22.5231L83.9722 11.8177ZM86.2582 19.9149H80.3345L83.2909 13.3532L86.2582 19.9149Z" fill="white"/>
<path d="M98.8693 11.7031H88.4148C88.3822 11.7029 88.35 11.7109 88.3213 11.7264C88.2926 11.7419 88.2682 11.7644 88.2504 11.7918C88.2327 11.8191 88.2221 11.8504 88.2194 11.8829C88.2168 11.9153 88.2222 11.9479 88.2353 11.9778L88.6073 12.8191C88.6225 12.8539 88.6476 12.8836 88.6795 12.9044C88.7114 12.9251 88.7487 12.9361 88.7868 12.9358H92.9954V22.6031C92.9951 22.6289 92.9999 22.6544 93.0096 22.6783C93.0193 22.7021 93.0335 22.7239 93.0517 22.7422C93.0698 22.7605 93.0913 22.775 93.1151 22.7849C93.1388 22.7948 93.1643 22.7999 93.1901 22.7999H94.107C94.1592 22.7999 94.2093 22.7792 94.2462 22.7423C94.2831 22.7054 94.3038 22.6553 94.3038 22.6031V12.9358H98.4973C98.5353 12.9358 98.5723 12.9247 98.6043 12.904C98.6363 12.8833 98.6613 12.8538 98.6773 12.8191L99.0513 11.9778C99.0633 11.9478 99.0683 11.9153 99.0663 11.8829C99.0633 11.8506 99.0533 11.8193 99.0363 11.7918C99.0173 11.7642 98.9933 11.7417 98.9643 11.7262C98.9343 11.7107 98.9023 11.7028 98.8693 11.7031Z" fill="white"/>
<path d="M102.478 11.7031H101.564C101.455 11.7031 101.367 11.7912 101.367 11.8999V22.6031C101.367 22.7118 101.455 22.7999 101.564 22.7999H102.478C102.587 22.7999 102.675 22.7118 102.675 22.6031V11.8999C102.675 11.7912 102.587 11.7031 102.478 11.7031Z" fill="white"/>
<path d="M111.374 11.4766C109.603 11.4766 108.175 12.0368 107.135 13.1419C106.095 14.2471 105.565 15.6139 105.565 17.2511C105.524 18.7793 106.088 20.2619 107.133 21.3775C108.18 22.474 109.607 23.0298 111.372 23.0298C113.137 23.0298 114.579 22.474 115.628 21.3775C116.673 20.2619 117.237 18.7793 117.196 17.2511C117.196 15.6117 116.668 14.2233 115.628 13.1419C114.588 12.0606 113.147 11.4766 111.374 11.4766ZM115.888 17.2532C115.888 18.566 115.5 19.6322 114.7 20.4973C113.9 21.3624 112.803 21.7798 111.374 21.7798C109.944 21.7798 108.826 21.3472 108.048 20.4994C107.255 19.6086 106.835 18.4471 106.876 17.2554C106.834 16.0635 107.254 14.9016 108.048 14.0113C108.826 13.1592 109.944 12.7288 111.374 12.7288C112.803 12.7288 113.922 13.1614 114.7 14.0113C115.479 14.8613 115.879 15.9426 115.879 17.2532H115.888Z" fill="white"/>
<path d="M129.8 11.7031H128.894C128.868 11.7031 128.843 11.7082 128.819 11.7181C128.795 11.728 128.774 11.7426 128.756 11.7609C128.737 11.7792 128.723 11.8009 128.714 11.8247C128.704 11.8486 128.699 11.8742 128.699 11.8999L128.71 21.0243L121.606 11.7788C121.588 11.7553 121.564 11.7363 121.538 11.7231C121.511 11.71 121.482 11.7032 121.452 11.7031H120.289C120.263 11.7031 120.237 11.7082 120.214 11.7181C120.19 11.728 120.168 11.7426 120.15 11.7609C120.132 11.7792 120.118 11.8009 120.108 11.8247C120.098 11.8486 120.094 11.8742 120.094 11.8999V22.6031C120.094 22.6288 120.098 22.6544 120.108 22.6783C120.118 22.7021 120.132 22.7238 120.15 22.7421C120.168 22.7604 120.19 22.775 120.214 22.7849C120.237 22.7948 120.263 22.7999 120.289 22.7999H121.208C121.233 22.7999 121.259 22.7948 121.283 22.7849C121.306 22.775 121.328 22.7604 121.346 22.7421C121.364 22.7238 121.379 22.7021 121.388 22.6783C121.398 22.6544 121.403 22.6288 121.402 22.6031L121.392 13.4765L128.483 22.7221C128.501 22.7462 128.525 22.7658 128.552 22.7794C128.579 22.7929 128.609 22.7999 128.639 22.7999H129.8C129.852 22.7999 129.902 22.7792 129.939 22.7423C129.976 22.7054 129.997 22.6553 129.997 22.6031V11.8934C129.995 11.8423 129.974 11.7939 129.937 11.7584C129.9 11.7229 129.851 11.7031 129.8 11.7031Z" fill="white"/>
<path d="M11.7266 28.9802V0.309283C11.7261 0.245983 11.7452 0.184083 11.7813 0.132083C11.8174 0.0800829 11.8686 0.0404826 11.928 0.0187826C11.9874 -0.00301741 12.0521 -0.00591724 12.1132 0.0104828C12.1743 0.0268828 12.2289 0.0616829 12.2694 0.110283L26.3854 16.9383C26.4235 16.983 26.4479 17.0378 26.4558 17.0961C26.4637 17.1543 26.4547 17.2136 26.4298 17.2669C26.405 17.3202 26.3654 17.3652 26.3157 17.3967C26.2661 17.4281 26.2084 17.4447 26.1496 17.4443H17.8362C17.777 17.444 17.719 17.4607 17.6691 17.4926C17.6193 17.5244 17.5796 17.57 17.5551 17.6238L12.3148 29.1035C12.2865 29.168 12.2368 29.2208 12.1742 29.253C12.1115 29.2852 12.0397 29.2949 11.9707 29.2805C11.9017 29.266 11.8398 29.2283 11.7954 29.1736C11.7509 29.1189 11.7266 29.0507 11.7266 28.9802Z" fill="url(#paint0_linear_21_4253)"/>
<path d="M9.94806 11.3705C9.94786 11.3073 9.92826 11.2457 9.89186 11.194C9.85556 11.1423 9.80426 11.1029 9.74486 11.0812C9.68546 11.0595 9.62086 11.0566 9.55976 11.0727C9.49866 11.0889 9.44396 11.1234 9.40306 11.1716L0.0731762 22.29C0.0352062 22.3346 0.010806 22.3892 0.00284602 22.4473C-0.00511398 22.5053 0.00370621 22.5645 0.0282662 22.6177C0.0528262 22.6709 0.0920961 22.716 0.141436 22.7476C0.190786 22.7792 0.248146 22.796 0.306746 22.7961H6.27148C6.33034 22.7959 6.38801 22.8127 6.43752 22.8446C6.48702 22.8764 6.52625 22.9219 6.55047 22.9756L9.36196 29.122C9.39046 29.1868 9.44046 29.2399 9.50366 29.2721C9.56676 29.3043 9.63906 29.3136 9.70826 29.2986C9.77746 29.2836 9.83936 29.2451 9.88346 29.1897C9.92756 29.1342 9.95116 29.0653 9.95026 28.9944V11.3705H9.94806Z" fill="url(#paint1_linear_21_4253)"/>
<defs>
<linearGradient id="paint0_linear_21_4253" x1="19.0949" y1="28.0502" x2="19.0949" y2="1.19158" gradientUnits="userSpaceOnUse">
<stop stop-color="#2573EF"/>
<stop offset="0.5" stop-color="#3282FF"/>
</linearGradient>
<linearGradient id="paint1_linear_21_4253" x1="228.757" y1="2392.33" x2="228.757" y2="981.05" gradientUnits="userSpaceOnUse">
<stop stop-color="#2573EF"/>
<stop offset="0.5" stop-color="#3282FF"/>
</linearGradient>
</defs>
</svg>
