<svg width="232" height="90" viewBox="0 0 232 90" fill="none" xmlns="http://www.w3.org/2000/svg">
<path fill-rule="evenodd" clip-rule="evenodd" d="M76.653 17.4872C76.1031 18.1861 76.16 18.9527 76.8101 19.6028C77.4804 20.273 78.0985 20.2919 78.844 19.6645C79.5333 19.0847 79.6069 18.2209 79.0296 17.4872C78.7205 17.0941 78.491 17 77.8413 17C77.1916 17 76.9621 17.0941 76.653 17.4872ZM83.9164 23.4699C82.9193 23.8722 82.6393 25.1515 83.3641 25.9941C84.2855 27.0652 86.0758 26.3822 86.0633 24.9646C86.0564 24.1816 85.7626 23.7415 85.0713 23.4786C84.4872 23.2565 84.4458 23.2562 83.9164 23.4699ZM76.461 28.972C76.4647 29.0482 76.5866 29.3187 76.7319 29.5729C77.323 30.6069 76.9098 32.0742 75.8446 32.7236C74.5507 33.5127 73.0543 32.8955 72.5717 31.3738C72.4192 30.8929 72.2495 30.4989 72.1946 30.4984C71.8841 30.4954 69.7441 32.9151 69.2749 33.7997C68.3439 35.5545 68.0862 36.7593 68.1627 38.9969C68.228 40.9025 68.262 41.043 69.0323 42.5976C69.9861 44.5226 71.3829 46.0161 73.0623 46.907C73.6854 47.2374 74.2458 47.5079 74.3079 47.5079C74.5542 47.5079 74.3861 46.5006 73.6109 43.3309C73.1654 41.5097 72.6133 39.1748 72.3839 38.1423L71.9668 36.2651L72.3868 35.397C73.1113 33.9008 74.5731 33.3212 75.94 33.9883C76.9732 34.4925 77.5952 35.4135 77.603 36.4496C77.6109 37.5388 76.7794 42.1361 76.0938 44.7932C75.4184 47.411 75.3964 47.8104 75.9189 47.9762C76.667 48.2136 79.3696 48.1014 80.4576 47.7876C83.5344 46.9005 86.0932 44.3898 87.0329 41.3361C87.5556 39.6374 87.5851 37.142 87.1002 35.6745C86.0466 32.4867 83.5542 30.0694 80.35 29.1283C79.3375 28.831 76.449 28.7148 76.461 28.972ZM90.7576 30.496C89.213 31.1192 89.6293 33.4622 91.293 33.5094C92.8269 33.5528 93.5122 31.7762 92.3414 30.7912C91.7466 30.2907 91.418 30.2293 90.7576 30.496ZM97.1581 37.436C96.5278 38.107 96.5591 39.0979 97.2288 39.6738C98.7529 40.9848 100.762 38.9008 99.3865 37.436C99.0724 37.1017 98.7553 36.9688 98.2723 36.9688C97.7894 36.9688 97.4723 37.1017 97.1581 37.436ZM140.429 42.0496V44.9118L139.582 44.3145C138.795 43.7597 138.628 43.7175 137.224 43.7175C135.464 43.7175 134.641 44.0405 133.557 45.1575C132.444 46.3051 132.035 47.5965 132.026 50.004C132.019 51.8644 132.063 52.1366 132.552 53.1957C133.462 55.1707 135.179 56.3722 137.101 56.3777C138.476 56.382 139.298 56.1265 140.013 55.4727L140.614 54.9246V55.5612V56.198H141.631H142.647V47.6928V39.1876H141.538H140.429V42.0496ZM106.408 43.9984C105.95 44.2117 105.347 44.6052 105.067 44.8724L104.559 45.3583V44.5841V43.81H103.542H102.525V50.004V56.198H103.634H104.744L104.745 52.8237C104.746 49.0856 104.936 47.4646 105.454 46.7692C106.589 45.2464 109.364 45.2364 110.131 46.7526C110.304 47.095 110.392 48.5019 110.439 51.7143L110.504 56.198H111.61H112.716L112.659 51.252C112.604 46.5355 112.583 46.27 112.186 45.5282C111.562 44.3602 110.421 43.7636 108.648 43.6781C107.508 43.6232 107.082 43.6841 106.408 43.9984ZM117.79 43.9009C115.154 44.8397 114.36 47.5526 116.185 49.3779C116.864 50.0574 117.565 50.3327 121.068 51.2959C122.263 51.6244 122.864 52.1061 122.864 52.7362C122.864 54.8383 118.401 55.2109 117.441 53.189C117.271 52.8301 117.132 52.4337 117.132 52.308C117.132 52.1386 116.858 52.1114 116.078 52.2031C115.499 52.2714 114.989 52.3622 114.946 52.4049C114.904 52.4478 114.924 52.776 114.991 53.1341C115.159 54.029 116.151 55.273 117.14 55.8282C117.88 56.2435 118.171 56.2905 120.003 56.2905C121.816 56.2905 122.141 56.2393 122.941 55.8275C123.436 55.5727 124.1 55.045 124.415 54.6547C124.949 53.9953 124.99 53.8417 124.99 52.4933C124.99 51.0858 124.97 51.0211 124.346 50.3771C123.694 49.7045 123.672 49.6958 119.09 48.3024C117.727 47.888 117.134 47.2235 117.47 46.4867C117.891 45.5615 119.927 45.1693 121.31 45.7469C121.782 45.9444 122.049 46.2253 122.274 46.7635C122.471 47.2315 122.677 47.4729 122.832 47.4151C122.968 47.3644 123.342 47.3217 123.665 47.3202C124.685 47.3152 124.823 47.1107 124.454 46.1458C123.831 44.5142 122.145 43.6171 119.733 43.6332C119.065 43.6376 118.19 43.7582 117.79 43.9009ZM148.749 43.9865C147.987 44.2484 147.493 44.5919 146.78 45.3559C145.502 46.7247 145.147 47.7778 145.152 50.1889C145.156 51.8151 145.218 52.1715 145.669 53.1472C146.672 55.3174 148.062 56.2145 150.624 56.3448C152.551 56.443 153.704 56.1198 154.813 55.1702C155.474 54.6042 156.688 52.6123 156.492 52.4158C156.452 52.3762 155.914 52.2865 155.296 52.2166L154.173 52.0894L153.934 52.6654C153.607 53.456 152.59 54.3054 151.792 54.4552C149.697 54.8483 147.87 53.5076 147.514 51.3166L147.406 50.6511H151.987H156.568L156.468 49.2062C156.407 48.3127 156.211 47.3931 155.955 46.797C155.444 45.6109 154.07 44.3266 152.875 43.9194C151.727 43.5284 150.001 43.5565 148.749 43.9865ZM90.3075 44.3504C89.2357 45.4223 89.8838 46.9532 91.4093 46.9532C91.9827 46.9532 92.2281 46.8463 92.527 46.466C93.1864 45.6279 93.0154 44.524 92.1574 44.0805C91.3816 43.6792 90.9099 43.748 90.3075 44.3504ZM97.3478 50.004V56.198H98.4572H99.5666V50.004V43.81H98.4572H97.3478V50.004ZM127.486 50.004V56.198H128.595H129.705V50.004V43.81H128.595H127.486V50.004ZM138.467 45.7309C139.855 46.3109 140.614 47.8366 140.614 50.0482C140.614 51.7648 140.297 52.7983 139.522 53.6135C138.364 54.8302 136.669 54.8416 135.468 53.6409C134.616 52.7891 134.327 51.8605 134.328 49.9825C134.329 48.2135 134.554 47.3363 135.203 46.5647C136.064 45.5413 137.274 45.2324 138.467 45.7309ZM152.382 45.857C153.259 46.2818 153.891 47.1472 154.053 48.1474L154.159 48.8022H150.9C147.799 48.8022 147.64 48.7846 147.64 48.4444C147.64 47.4737 148.558 46.1929 149.581 45.736C150.392 45.374 151.481 45.421 152.382 45.857ZM83.4954 50.9747C83.2778 51.1528 83.0502 51.6065 82.9899 51.9831C82.8945 52.5792 82.9561 52.7436 83.4664 53.2539C83.9767 53.7642 84.1411 53.8258 84.7372 53.7304C86.6542 53.4235 86.4876 50.6511 84.5523 50.6511C84.1888 50.6511 83.7132 50.7966 83.4954 50.9747ZM76.7236 57.5764C76.0554 58.2446 76.1034 59.1684 76.8386 59.787C77.46 60.3099 77.9252 60.3817 78.5468 60.0507C80.0229 59.2645 79.5068 57.1225 77.8413 57.1225C77.3829 57.1225 77.0368 57.263 76.7236 57.5764ZM109.777 59.8958C107.791 60.3164 106.032 61.8815 105.365 63.8213C104.872 65.2561 104.925 67.7842 105.48 69.2182C105.996 70.5519 107.095 71.785 108.342 72.4279C109.106 72.8219 109.597 72.9226 111.066 72.9872C113.142 73.0781 114.764 72.688 116.258 71.7378L117.142 71.1763L117.091 68.5408L117.039 65.9051L114.22 65.854L111.4 65.803V67.0096V68.2163H112.89H114.38L114.323 68.9899C114.269 69.7149 114.208 69.7927 113.343 70.2226C111.655 71.0624 109.813 70.7775 108.748 69.5115C108.121 68.7663 107.889 67.8718 107.888 66.1946C107.887 64.5106 108.354 63.4099 109.348 62.7517C110.186 62.1972 111.5 61.9969 112.385 62.2889C112.989 62.4884 114.031 63.443 114.201 63.9528C114.291 64.2234 116.949 63.7945 116.943 63.5099C116.933 63.0259 116.186 61.775 115.536 61.1519C115.142 60.7749 114.449 60.3356 113.995 60.1755C112.972 59.8148 110.83 59.6728 109.777 59.8958ZM87.687 59.9965C87.6108 60.0768 87.5483 62.9991 87.5483 66.4906V72.8387L91.5698 72.8346C95.0838 72.8311 95.6847 72.7875 96.3309 72.4892C98.6393 71.4239 99.2153 68.2444 97.3798 66.6999C97.0646 66.4348 96.7002 66.1822 96.5698 66.1388C96.4141 66.0868 96.5371 65.8553 96.9281 65.4643C98.4376 63.9548 98.0307 61.553 96.0833 60.4778C95.3497 60.0729 95.0381 60.0363 91.5606 59.9466C89.5064 59.8937 87.7632 59.9161 87.687 59.9965ZM100.43 60.0193C100.362 60.0869 100.306 62.9991 100.306 66.4906V72.8387H101.693H103.08V66.3673V59.8959H101.816C101.121 59.8959 100.497 59.9514 100.43 60.0193ZM119.351 66.354V72.867L122.91 72.8065C126.866 72.7396 127.296 72.6266 128.54 71.3296C129.57 70.2546 129.955 69.1154 130.039 66.8983C130.164 63.6192 129.28 61.5963 127.276 60.5753C126.269 60.062 126.121 60.0411 122.793 59.9427L119.351 59.8408V66.354ZM133.683 65.4891C132.483 68.5652 131.348 71.4773 131.16 71.9604L130.819 72.8387H132.284H133.749L134.265 71.452L134.78 70.0652H137.285H139.79L140.306 71.452L140.822 72.8387H142.289C143.096 72.8387 143.757 72.7764 143.758 72.7C143.758 72.6237 142.614 69.7134 141.215 66.2327L138.672 59.9041L137.268 59.9L135.865 59.8959L133.683 65.4891ZM142.832 61.0978V62.2996H144.681H146.53V67.5691V72.8387H147.917H149.304V67.5691V62.2996H151.153H153.002V61.0978V59.8959H147.917H142.832V61.0978ZM154.675 65.7664C153.417 68.9951 152.274 71.9107 152.134 72.2454L151.881 72.8539L153.393 72.8L154.906 72.7462L155.385 71.4057L155.864 70.0652H158.383H160.903L161.409 71.452L161.914 72.8387H163.282C164.523 72.8387 164.65 72.8047 164.65 72.472C164.65 72.2703 163.553 69.3582 162.212 66.0007L159.773 59.8959H158.368H156.962L154.675 65.7664ZM94.4777 62.5161C95.3597 62.9181 95.3023 64.3717 94.3864 64.8353C94.1127 64.9738 93.1993 65.0686 92.1245 65.0703L90.3218 65.073V63.6863V62.2996H92.1621C93.1746 62.2996 94.2161 62.397 94.4777 62.5161ZM125.958 62.7896C126.982 63.5526 127.209 64.2225 127.203 66.4598C127.194 69.8432 126.677 70.4434 123.649 70.5844L121.939 70.6641V66.4598V62.2554L123.693 62.3321C125.096 62.3935 125.55 62.4852 125.958 62.7896ZM138.129 65.7392C138.485 66.7223 138.742 67.5606 138.701 67.6021C138.66 67.6435 137.964 67.6529 137.156 67.6231L135.686 67.5691L136.438 65.4987C136.938 64.1201 137.238 63.5157 137.336 63.6898C137.416 63.8337 137.773 64.7559 138.129 65.7392ZM159.151 65.4902C159.533 66.5319 159.844 67.4466 159.844 67.5229C159.843 67.5993 159.177 67.6616 158.364 67.6616C157.55 67.6616 156.884 67.5993 156.883 67.5229C156.879 67.2367 158.232 63.5939 158.342 63.595C158.405 63.5955 158.769 64.4485 159.151 65.4902ZM94.8994 67.6766C95.4325 68.0094 95.7355 68.7778 95.5793 69.4004C95.358 70.2819 94.7255 70.5201 92.4102 70.5935L90.3218 70.6599V68.9499V67.2402L92.4087 67.3323C93.7 67.3892 94.6497 67.5205 94.8994 67.6766Z" fill="#E9E9EA"/>
<path fill-rule="evenodd" clip-rule="evenodd" d="M76.653 17.4872C76.1031 18.1861 76.16 18.9527 76.8101 19.6028C77.4804 20.273 78.0985 20.2919 78.844 19.6645C79.5333 19.0847 79.6069 18.2209 79.0296 17.4872C78.7205 17.0941 78.491 17 77.8413 17C77.1916 17 76.9621 17.0941 76.653 17.4872ZM83.9164 23.4699C82.9193 23.8722 82.6393 25.1515 83.3641 25.9941C84.2855 27.0652 86.0758 26.3822 86.0633 24.9646C86.0564 24.1816 85.7626 23.7415 85.0713 23.4786C84.4872 23.2565 84.4458 23.2562 83.9164 23.4699ZM76.461 28.972C76.4647 29.0482 76.5866 29.3187 76.7319 29.5729C77.323 30.6069 76.9098 32.0742 75.8446 32.7236C74.5507 33.5127 73.0543 32.8955 72.5717 31.3738C72.4192 30.8929 72.2495 30.4989 72.1946 30.4984C71.8841 30.4954 69.7441 32.9151 69.2749 33.7997C68.3439 35.5545 68.0862 36.7593 68.1627 38.9969C68.228 40.9025 68.262 41.043 69.0323 42.5976C69.9861 44.5226 71.3829 46.0161 73.0623 46.907C73.6854 47.2374 74.2458 47.5079 74.3079 47.5079C74.5542 47.5079 74.3861 46.5006 73.6109 43.3309C73.1654 41.5097 72.6133 39.1748 72.3839 38.1423L71.9668 36.2651L72.3868 35.397C73.1113 33.9008 74.5731 33.3212 75.94 33.9883C76.9732 34.4925 77.5952 35.4135 77.603 36.4496C77.6109 37.5388 76.7794 42.1361 76.0938 44.7932C75.4184 47.411 75.3964 47.8104 75.9189 47.9762C76.667 48.2136 79.3696 48.1014 80.4576 47.7876C83.5344 46.9005 86.0932 44.3898 87.0328 41.3361C87.5556 39.6374 87.5851 37.142 87.1002 35.6745C86.0466 32.4867 83.5542 30.0694 80.35 29.1283C79.3375 28.831 76.449 28.7148 76.461 28.972ZM90.7576 30.496C89.213 31.1192 89.6293 33.4622 91.293 33.5094C92.8269 33.5528 93.5122 31.7762 92.3414 30.7912C91.7466 30.2907 91.418 30.2293 90.7576 30.496ZM97.1581 37.436C96.5278 38.107 96.5591 39.0979 97.2288 39.6738C98.7529 40.9848 100.762 38.9008 99.3865 37.436C99.0724 37.1017 98.7553 36.9688 98.2723 36.9688C97.7894 36.9688 97.4723 37.1017 97.1581 37.436ZM90.3075 44.3504C89.2357 45.4223 89.8838 46.9532 91.4093 46.9532C91.9827 46.9532 92.2281 46.8463 92.527 46.466C93.1864 45.6279 93.0154 44.524 92.1574 44.0805C91.3816 43.6792 90.9099 43.748 90.3075 44.3504ZM83.4954 50.9747C83.2778 51.1528 83.0502 51.6065 82.9899 51.9831C82.8945 52.5792 82.9561 52.7436 83.4664 53.2539C83.9767 53.7642 84.1411 53.8258 84.7372 53.7304C86.6542 53.4235 86.4876 50.6511 84.5523 50.6511C84.1888 50.6511 83.7132 50.7966 83.4954 50.9747ZM76.7236 57.5764C76.0554 58.2446 76.1034 59.1684 76.8386 59.787C77.46 60.3099 77.9252 60.3817 78.5468 60.0507C80.0229 59.2645 79.5068 57.1225 77.8413 57.1225C77.3829 57.1225 77.0368 57.263 76.7236 57.5764Z" fill="#8A8F98"/>
</svg>
