<svg width="160" height="80" viewBox="0 0 160 80" fill="none" xmlns="http://www.w3.org/2000/svg">
<g clip-path="url(#clip0_21_7083)">
<path d="M18 26V46.7012H21.3995V40.9653L22.1385 40.2831L27.3146 46.7012H31.5156L24.7422 38.5094L31.041 32.2107H26.8427L21.3995 37.6794V26H18Z" fill="#8A8F98"/>
<path d="M38.3422 43.9538C40.7952 43.9538 42.6882 41.9641 42.6882 39.4571C42.6882 36.9501 40.7952 34.9661 38.3422 34.9661C35.8892 34.9661 33.9933 36.9558 33.9933 39.4571C33.9933 41.9584 35.8863 43.9538 38.3422 43.9538ZM45.9115 32.2147V46.7109H42.5404V44.6047C41.9761 45.3744 41.2364 45.9984 40.3827 46.425C39.529 46.8516 38.5859 47.0685 37.6316 47.0577C33.6522 47.0577 30.5625 43.7463 30.5625 39.4571C30.5625 35.1679 33.638 31.8594 37.6316 31.8594C39.6411 31.8594 41.4745 32.6865 42.5404 34.1958V32.2061L45.9115 32.2147Z" fill="#8A8F98"/>
<path d="M51.9933 46.7003H48.5625V32.204H51.9933V34.1255C52.8773 32.7668 54.3866 31.8516 56.4274 31.8516C59.9463 31.8516 62.044 34.2164 62.044 37.9741V46.7003H58.6161V38.6307C58.6161 36.3824 57.4621 35.0208 55.3928 35.0208C53.3235 35.0208 51.9819 36.587 51.9819 39.0713L51.9933 46.7003Z" fill="#8A8F98"/>
<path d="M71.7981 34.932C71.2376 34.9353 70.6833 35.0501 70.1676 35.2697C69.6519 35.4893 69.1851 35.8094 68.7943 36.2112C68.4036 36.6131 68.0967 37.0887 67.8917 37.6104C67.6866 38.132 67.5874 38.6893 67.5998 39.2496C67.5998 41.6742 69.4332 43.5957 71.7981 43.5957C74.163 43.5957 75.9878 41.6742 75.9878 39.2496C76.0002 38.689 75.9009 38.1315 75.6957 37.6097C75.4904 37.0879 75.1833 36.6121 74.7923 36.2102C74.4012 35.8083 73.9341 35.4883 73.418 35.2689C72.902 35.0494 72.3474 34.9349 71.7867 34.932H71.7981ZM71.0903 46.5518C67.1564 46.5518 64.1406 43.4251 64.1406 39.2496C64.1406 35.0741 67.1564 31.8594 71.0903 31.8594C73.0999 31.8594 74.8736 32.7462 75.8485 34.1646V32.2118H79.2224V45.8127C79.2224 50.3066 76.38 53.3537 71.6503 53.3537C68.427 53.3537 65.8859 51.9324 64.6437 49.5391L67.3639 47.8337C67.7732 48.6125 68.3906 49.2624 69.1473 49.7111C69.9041 50.1597 70.7706 50.3895 71.6503 50.3748C74.2539 50.3748 75.8485 48.6694 75.8485 45.8525V44.2153C74.8736 45.6053 73.0715 46.5518 71.0903 46.5518Z" fill="#8A8F98"/>
<path d="M88.9799 43.9538C91.4329 43.9538 93.326 41.9641 93.326 39.4571C93.326 36.9501 91.4329 34.9661 88.9799 34.9661C86.5269 34.9661 84.6311 36.9558 84.6311 39.4571C84.6311 41.9584 86.5241 43.9538 88.9799 43.9538ZM96.5493 32.2147V46.7109H93.1782V44.6047C92.6138 45.3744 91.8741 45.9984 91.0204 46.425C90.1667 46.8516 89.2236 47.0685 88.2693 47.0577C84.29 47.0577 81.2031 43.7463 81.2031 39.4571C81.2031 35.1679 84.2786 31.8594 88.2693 31.8594C90.2789 31.8594 92.1123 32.6865 93.1782 34.1958V32.2061L96.5493 32.2147Z" fill="#8A8F98"/>
<path d="M102.603 46.6987H99.2031V32.2109H102.574L102.603 46.6987Z" fill="#8A8F98"/>
<path d="M113.048 39.46C113.048 41.9442 114.941 43.9254 117.366 43.9254C119.79 43.9254 121.683 41.9357 121.683 39.46C121.683 36.9842 119.79 34.9945 117.366 34.9945C114.941 34.9945 113.048 36.9842 113.048 39.46ZM125.083 39.46C125.083 43.7236 121.803 47.0577 117.366 47.0577C112.929 47.0577 109.648 43.7179 109.648 39.46C109.648 35.202 112.934 31.8594 117.366 31.8594C121.797 31.8594 125.083 35.202 125.083 39.46Z" fill="#8A8F98"/>
<path d="M129.965 39.46C129.965 41.9442 131.855 43.9254 134.28 43.9254C136.704 43.9254 138.597 41.9357 138.597 39.46C138.597 36.9842 136.704 34.9945 134.28 34.9945C131.855 34.9945 129.965 36.9842 129.965 39.46ZM142 39.46C142 43.7236 138.717 47.0577 134.28 47.0577C129.843 47.0577 126.562 43.7179 126.562 39.46C126.562 35.202 129.845 31.8594 134.28 31.8594C138.714 31.8594 142 35.202 142 39.46Z" fill="#8A8F98"/>
<path d="M109.115 34.9063C109.116 35.4416 108.957 35.965 108.66 36.4104C108.363 36.8558 107.941 37.203 107.447 37.4083C106.952 37.6135 106.408 37.6675 105.883 37.5634C105.358 37.4593 104.875 37.2018 104.497 36.8235C104.118 36.4452 103.86 35.963 103.755 35.4381C103.651 34.9131 103.704 34.3688 103.909 33.8742C104.114 33.3796 104.46 32.9568 104.905 32.6594C105.351 32.3619 105.874 32.2031 106.409 32.2031C106.764 32.2028 107.116 32.2724 107.444 32.4081C107.773 32.5438 108.071 32.7428 108.322 32.9938C108.574 33.2449 108.773 33.543 108.909 33.8712C109.045 34.1993 109.115 34.551 109.115 34.9063Z" fill="#8A8F98"/>
</g>
<defs>
<clipPath id="clip0_21_7083">
<rect width="124" height="27.3525" fill="white" transform="translate(18 26)"/>
</clipPath>
</defs>
</svg>
