<svg width="160" height="80" viewBox="0 0 160 80" fill="none" xmlns="http://www.w3.org/2000/svg">
<g clip-path="url(#clip0_21_7121)">
<path d="M113.856 32.8398C112.322 32.8398 110.93 33.3387 109.863 34.2571L109.555 33.1685H106.849V46.8538H110.289V39.4179C110.289 37.8352 111.35 36.2314 113.376 36.2314C114.961 36.2314 115.905 37.348 115.905 39.2151V46.8562H119.345V38.9634C119.345 35.2431 117.192 32.8398 113.856 32.8398ZM86.3571 40.0007C86.3571 42.1848 84.9326 43.7699 82.9676 43.7699C81.0026 43.7699 79.5783 42.1848 79.5783 40.0007C79.5783 37.8165 81.0026 36.2314 82.9676 36.2314C84.9301 36.2314 86.3571 37.8165 86.3571 40.0007ZM82.9653 32.8398C79.1075 32.8398 76.0842 35.9844 76.0842 39.9983C76.0842 44.0123 79.1052 47.1592 82.9653 47.1592C86.8231 47.1592 89.8466 44.0147 89.8466 39.9983C89.8466 35.9844 86.8256 32.8398 82.9653 32.8398ZM101.392 40.0007C101.392 42.1848 99.9651 43.7699 98.0026 43.7699C96.0401 43.7699 94.6131 42.1848 94.6131 40.0007C94.6131 37.8165 96.0401 36.2314 98.0026 36.2314C99.9676 36.2314 101.392 37.8165 101.392 40.0007ZM98.0026 32.8398C94.1446 32.8398 91.1216 35.9844 91.1216 39.9983C91.1216 44.0123 94.1426 47.1592 98.0026 47.1592C101.861 47.1592 104.884 44.0147 104.884 39.9983C104.884 35.9844 101.863 32.8398 98.0026 32.8398ZM68.6319 32.8398C67.1005 32.8398 65.7066 33.3387 64.6367 34.2571L64.3289 33.1685H61.625V46.8538H65.0655V39.4179C65.0655 37.8352 66.1262 36.2314 68.1518 36.2314C69.7368 36.2314 70.6809 37.348 70.6809 39.2151V46.8562H74.1215V38.9634C74.1215 35.2431 71.9676 32.8398 68.6319 32.8398Z" fill="#8A8F98"/>
<path d="M33 40.5688C33 47.0023 38.4685 52 44.8251 52C51.4802 52 56.8741 46.6317 56.8741 40.0746C56.8741 36.2401 55.0187 32.8741 52.2728 30.6247L50.268 34.0886C51.9254 35.4988 53.063 37.676 53.063 40.1258C53.063 44.5781 49.3776 48.2401 44.8251 48.2401C40.2983 48.2401 36.6107 44.5781 36.6107 40.0023C36.6107 39.4569 36.6597 38.9138 36.7599 38.394L33 40.5688ZM48.5361 28.5944C47.3986 28.1725 46.3846 28 45.3707 28C44.6038 28 43.9347 28.0979 43.4405 28.1981L40.8671 32.6504C41.8066 32.1072 43.0187 31.8089 44.331 31.8089C45.0979 31.8089 45.7902 31.9068 46.5082 32.1049L48.5361 28.5944Z" fill="#8A8F98"/>
</g>
<defs>
<clipPath id="clip0_21_7121">
<rect width="86.5" height="24" fill="white" transform="translate(33 28)"/>
</clipPath>
</defs>
</svg>
