<svg width="160" height="80" viewBox="0 0 160 80" fill="none" xmlns="http://www.w3.org/2000/svg">
<g clip-path="url(#clip0_21_7126)">
<path d="M89.5407 35.1218C88.8595 35.5912 87.9641 35.5914 87.2829 35.1218C86.2177 34.3879 84.9125 33.9553 83.5069 33.9553C79.9276 33.9553 77.0156 36.7573 77.0156 40.2017V48.7191C77.0156 49.5682 77.6563 50.3135 78.504 50.3642C79.4243 50.4195 80.1879 49.6895 80.1879 48.7811V40.2017C80.1879 38.5066 81.6767 37.1274 83.5069 37.1274C85.3368 37.1274 86.8257 38.5066 86.8257 40.2017V48.7191C86.8257 49.5682 87.4664 50.3135 88.314 50.3642C89.2343 50.4195 89.9979 49.6895 89.9979 48.7811V40.2017C89.9979 38.5066 91.4868 37.1274 93.3167 37.1274C95.1467 37.1274 96.6357 38.5066 96.6357 40.2017V48.7191C96.6357 49.5682 97.2762 50.3135 98.1239 50.3642C99.0442 50.4195 99.8078 49.6895 99.8078 48.7811V40.2017C99.8078 36.7573 96.8959 33.9553 93.3167 33.9553C91.9111 33.9553 90.6059 34.3879 89.5407 35.1218Z" fill="#8A8F98"/>
<path d="M53.2354 29.9953C47.894 29.9953 43.4893 34.0829 42.9844 39.2941V41.295C43.4893 46.5064 47.894 50.5938 53.2354 50.5938C58.9147 50.5938 63.5346 45.9736 63.5346 40.2945C63.5346 34.6155 58.9147 29.9953 53.2354 29.9953ZM46.1083 40.2945C46.1083 36.3648 49.3056 33.1674 53.2354 33.1674C57.1654 33.1674 60.3625 36.3648 60.3625 40.2945C60.3625 44.2245 57.1654 47.4216 53.2354 47.4216C49.3056 47.4216 46.1083 44.2245 46.1083 40.2945Z" fill="#8A8F98"/>
<path d="M53.2367 33.1676C49.3068 33.1676 46.1098 36.3648 46.1098 40.2947C46.1098 44.2245 49.3068 47.4216 53.2367 47.4216C57.1667 47.4216 60.3638 44.2245 60.3638 40.2947C60.3638 36.3648 57.1667 33.1676 53.2367 33.1676ZM53.2367 50.5938C47.5576 50.5938 42.9375 45.9738 42.9375 40.2947C42.9375 34.6155 47.5576 29.9955 53.2367 29.9955C58.9158 29.9955 63.5359 34.6155 63.5359 40.2947C63.5359 45.9738 58.9158 50.5938 53.2367 50.5938Z" stroke="#8A8F98" stroke-width="0.0932743" stroke-miterlimit="10"/>
<path d="M101.594 42.2131C101.594 46.8342 105.353 50.5938 109.974 50.5938C114.596 50.5938 118.355 46.8342 118.355 42.2131C118.355 37.5918 114.596 33.8322 109.974 33.8322C105.353 33.8322 101.594 37.5918 101.594 42.2131ZM104.766 42.2131C104.766 39.3411 107.102 37.0045 109.974 37.0045C112.846 37.0045 115.183 39.3411 115.183 42.2131C115.183 45.0849 112.846 47.4216 109.974 47.4216C107.102 47.4216 104.766 45.0849 104.766 42.2131Z" fill="#8A8F98"/>
<path d="M109.982 37.0045C107.11 37.0045 104.774 39.3411 104.774 42.2131C104.774 45.085 107.11 47.4216 109.982 47.4216C112.854 47.4216 115.191 45.085 115.191 42.2131C115.191 39.3411 112.854 37.0045 109.982 37.0045ZM109.982 50.5938C105.361 50.5938 101.602 46.8342 101.602 42.2131C101.602 37.5918 105.361 33.8324 109.982 33.8324C114.603 33.8324 118.363 37.5918 118.363 42.2131C118.363 46.8342 114.603 50.5938 109.982 50.5938Z" stroke="#8A8F98" stroke-width="0.0932743" stroke-miterlimit="10"/>
<path d="M65.1536 38.1961C65.1536 40.5019 66.8511 42.3274 69.4785 42.8466C71.5644 43.2589 72.0023 44.322 72.0023 45.1412C72.0023 46.2736 71.0808 47.1951 69.9485 47.1951H65.3205C64.4444 47.1951 63.7344 47.9051 63.7344 48.7811C63.7344 49.6572 64.4444 50.3672 65.3205 50.3672H69.9485C72.8301 50.3672 75.1744 48.0227 75.1744 45.1412C75.1744 42.3846 73.2751 40.3635 70.0935 39.7344C69.4333 39.604 68.3257 39.2308 68.3257 38.1961C68.3257 37.4806 68.9079 36.8982 69.6236 36.8982C69.7843 36.8982 69.9406 36.927 70.0881 36.9835C70.9059 37.2976 71.8235 36.8887 72.137 36.0709C72.4509 35.2527 72.0423 34.3355 71.2244 34.0218C70.7129 33.8257 70.1742 33.7261 69.6236 33.7261C67.1589 33.7261 65.1536 35.7314 65.1536 38.1961Z" fill="#8A8F98"/>
<path d="M69.9563 50.3672H65.3283C64.4522 50.3672 63.7422 49.6572 63.7422 48.7811C63.7422 47.9051 64.4522 47.1951 65.3283 47.1951H69.9563C71.0887 47.1951 72.0102 46.2736 72.0102 45.1412C72.0102 44.322 71.5723 43.2591 69.4861 42.8466C66.8589 42.3274 65.1614 40.5019 65.1614 38.1961C65.1614 35.7314 67.1666 33.7261 69.6315 33.7261C70.1821 33.7261 70.7207 33.8255 71.2322 34.0218C72.0501 34.3355 72.4587 35.2529 72.1448 36.0709C71.8313 36.8887 70.9137 37.2976 70.0959 36.9835C69.9484 36.927 69.7922 36.8983 69.6315 36.8983C68.9157 36.8983 68.3335 37.4806 68.3335 38.1961C68.3335 39.2308 69.4411 39.6042 70.1013 39.7344C73.2829 40.3635 75.1823 42.3848 75.1823 45.1412C75.1823 48.0227 72.838 50.3672 69.9563 50.3672Z" stroke="#8A8F98" stroke-width="0.0932743" stroke-miterlimit="10"/>
</g>
<defs>
<clipPath id="clip0_21_7126">
<rect width="77" height="22" fill="white" transform="translate(42 29)"/>
</clipPath>
</defs>
</svg>
