<svg width="160" height="80" viewBox="0 0 160 80" fill="none" xmlns="http://www.w3.org/2000/svg">
<g clip-path="url(#clip0_21_7162)">
<path fill-rule="evenodd" clip-rule="evenodd" d="M10.231 32.5224C9.29614 33.0114 9.34744 32.5786 9.34539 40.005L9.34375 46.4128L9.53418 46.7952C9.99629 47.722 9.72666 47.692 17.2994 47.6629L23.4411 47.6391L23.815 47.4077C24.0613 47.2551 24.2505 47.0594 24.3695 46.8338L24.5505 46.4912L24.53 39.923L24.5094 33.3548L24.3235 33.0832C24.2213 32.9343 24.0153 32.7283 23.8659 32.6262L23.5946 32.4403L17.0286 32.4206C11.1881 32.4034 10.4371 32.4145 10.231 32.5224ZM83.1903 32.7115C80.5797 33.123 79.2714 34.501 79.2714 36.8379C79.2714 39.2075 80.4697 40.5613 83.5035 41.6186C85.3618 42.2664 85.7517 42.5076 85.7517 43.0077C85.7517 43.9201 83.556 44.1523 81.4223 43.466C80.0835 43.0352 80.1209 43.0126 79.5258 44.5979C78.9344 46.1728 78.9521 46.2336 80.1402 46.7177C82.3958 47.6366 86.0303 47.6924 87.761 46.8338C89.4519 45.9952 90.12 44.8826 90.1044 42.933C90.0855 40.6258 89.2118 39.6522 86.137 38.5117C84.2299 37.8044 83.668 37.4524 83.668 36.9646C83.668 36.1441 85.1886 35.9739 87.5254 36.5322C88.6577 36.803 88.6347 36.8186 89.1941 35.3835C89.6805 34.1363 89.7002 33.9566 89.3805 33.6875C88.4944 32.9421 85.111 32.4083 83.1903 32.7115ZM28.8314 32.97C28.6812 33.0807 28.5322 46.22 28.675 46.8042C28.7727 47.2055 28.8203 47.2149 30.805 47.2149C33.194 47.2149 32.9605 47.436 32.9605 45.1702V43.4344H33.8289C38.6709 43.434 40.4844 41.9833 40.4844 38.1109C40.4844 35.1152 39.4843 33.7322 36.8195 33.0442C36.0988 32.858 29.0723 32.7927 28.8314 32.97ZM42.4852 33.027C42.3427 33.1841 42.3382 33.4118 42.3382 40.0547V46.9199L42.5204 47.0672C42.804 47.2969 51.4422 47.2969 51.7262 47.0676C51.9442 46.8912 52.0541 44.188 51.8625 43.7252C51.7184 43.3774 51.5641 43.3572 49.0492 43.3572H46.7021L46.6811 38.2204C46.6606 33.237 46.6557 33.0803 46.5104 32.9741C46.2326 32.771 42.6744 32.8178 42.4852 33.027ZM57.4005 33.0512C57.2975 33.1624 57.0689 33.7306 56.8341 34.4592C56.6174 35.1308 55.9005 37.3298 55.2409 39.3453C52.5569 47.5484 52.7703 46.8034 53.0276 47.0606C53.1733 47.2063 53.2845 47.2149 55.0686 47.2149C57.3521 47.2149 57.2371 47.2649 57.5474 46.1347C57.6578 45.7314 57.7744 45.315 57.8064 45.2087L57.8638 45.0159L59.7821 44.9954C61.9753 44.9716 61.7692 44.8982 62.0216 45.7917C62.446 47.2924 62.3015 47.2149 64.6733 47.2149C67.0643 47.2149 67.0101 47.2649 66.4651 45.5665C63.9883 37.843 62.423 33.1968 62.2441 33.0381C62.0512 32.8666 62.0225 32.8645 59.8112 32.8645H57.5737L57.4005 33.0512ZM64.8095 33.0057C64.5477 33.2945 64.6478 33.516 66.9584 37.7486L69.2353 41.9193V44.3636C69.2353 46.7201 69.2411 46.8157 69.3954 47.0114L69.555 47.2149H71.4351H73.3147L73.4744 47.0114C73.6287 46.8157 73.6345 46.7201 73.6345 44.3624V41.9164L75.9114 37.7445C78.2462 33.4668 78.3401 33.2571 78.0471 32.9921C77.8702 32.8325 74.4035 32.7989 74.0637 32.9536C73.7543 33.0947 72.5157 35.6953 71.802 37.7039C71.4519 38.6885 71.4207 38.6873 71.0518 37.6674C70.7887 36.9404 69.8181 34.6824 69.2604 33.4996C68.9649 32.8736 68.93 32.8645 66.7811 32.8645C65.0927 32.8645 64.9265 32.8764 64.8095 33.0057ZM92.1884 32.9236C91.9332 33.0939 91.9262 33.2826 91.9262 40.0629C91.9262 46.7702 91.927 46.8096 92.0863 47.0114L92.2463 47.2149H94.1194C95.926 47.2149 95.9982 47.2091 96.1398 47.0524C96.2822 46.8953 96.2867 46.668 96.2867 40.0395C96.2867 33.4114 96.2822 33.1841 96.1398 33.027C95.9884 32.8596 92.424 32.7665 92.1884 32.9236ZM98.8259 32.9236C98.5706 33.0939 98.5637 33.2826 98.5637 40.0629C98.5637 46.7702 98.5645 46.8096 98.7237 47.0114L98.8838 47.2149H100.644C102.263 47.2149 102.42 47.203 102.588 47.0672L102.77 46.9199L102.808 43.4221L102.847 39.9238L104.194 42.1778C106.074 45.3211 105.837 45.3211 107.699 42.1806C108.423 40.9605 109.042 39.9624 109.076 39.9624C109.11 39.9624 109.137 41.5246 109.137 43.4344C109.137 46.8034 109.142 46.9109 109.292 47.0606C109.53 47.2986 112.912 47.2986 113.151 47.0606C113.303 46.9084 113.305 46.8034 113.305 40.0395C113.305 33.276 113.303 33.171 113.151 33.0188C113.005 32.8736 112.893 32.8645 111.232 32.8645H109.467L109.283 33.0512C109.182 33.1542 108.404 34.4387 107.556 35.9062C106.707 37.3737 105.978 38.5626 105.936 38.5486C105.894 38.5347 105.157 37.3105 104.298 35.8286C103.439 34.3468 102.662 33.0738 102.571 32.9995C102.397 32.8571 99.0278 32.789 98.8259 32.9236ZM115.702 33.0143C115.456 33.2608 115.451 46.8137 115.698 47.0606C115.843 47.2063 115.955 47.2149 117.699 47.2149H119.546L119.705 47.0114C119.856 46.8198 119.865 46.7111 119.865 45.1214V43.4344L120.695 43.4336C125.527 43.4299 127.39 41.9595 127.39 38.1495C127.39 35.2305 126.378 33.7847 123.84 33.0816C122.895 32.8198 115.954 32.7624 115.702 33.0143ZM129.467 32.9236C129.211 33.0939 129.204 33.2826 129.204 40.0629C129.204 46.7702 129.205 46.8096 129.364 47.0114L129.524 47.2149H133.987C139.436 47.2149 138.803 47.4331 138.84 45.5402C138.884 43.2038 139.087 43.3572 135.954 43.3572H133.603V38.314C133.603 33.3289 133.602 33.2686 133.444 33.0676L133.283 32.8645L131.417 32.8658C130.391 32.8662 129.513 32.8924 129.467 32.9236ZM140.781 33.0188C140.629 33.171 140.627 33.276 140.627 40.0395C140.627 46.8034 140.629 46.9084 140.781 47.0606C140.985 47.2641 150.196 47.3068 150.472 47.1054C150.706 46.9343 150.745 44.0969 150.517 43.8147L150.365 43.6272L147.657 43.605L144.949 43.5829V42.6212V41.66H147.346C150.468 41.66 150.194 41.8274 150.196 39.9164C150.197 38.0432 150.505 38.2323 147.41 38.204L144.949 38.1819V37.3392V36.4965L147.571 36.4744C150.874 36.4465 150.544 36.6491 150.544 34.645C150.544 33.322 150.531 33.1747 150.397 33.027C150.172 32.7776 141.03 32.7698 140.781 33.0188ZM13.4671 34.6832C13.6005 34.8161 13.6489 36.8161 13.5237 37.0135C13.4761 37.0881 13.1712 37.107 12.2708 37.0906L11.0802 37.0692L11.0588 35.9226C11.0441 35.1423 11.0658 34.7415 11.1261 34.6688C11.2632 34.5035 13.3001 34.5158 13.4671 34.6832ZM16.1675 34.6085C16.2718 34.6487 16.2898 34.835 16.2898 35.8836V37.1119L15.0742 37.0906L13.8586 37.0692L13.8373 35.9226C13.8225 35.1423 13.8442 34.7415 13.9046 34.6688C13.9969 34.5577 15.9028 34.5072 16.1675 34.6085ZM22.7558 34.6266C22.8305 34.6742 22.8489 34.979 22.8329 35.8791L22.8116 37.0692L21.596 37.0906L20.3804 37.1119V35.882C20.3804 34.97 20.4054 34.6418 20.4768 34.613C20.6385 34.5478 22.6503 34.5597 22.7558 34.6266ZM35.2157 36.5712C35.867 36.7521 36.1477 37.2161 36.1477 38.1109C36.1477 39.4352 35.7065 39.7642 33.9253 39.7679L32.9991 39.7696L32.9785 38.1302L32.9576 36.4908L33.943 36.4912C34.4851 36.4912 35.0581 36.5273 35.2157 36.5712ZM122.412 36.6852C123.3 37.1981 123.254 39.0713 122.342 39.5702C122.031 39.7404 121.909 39.7572 120.952 39.763L119.904 39.7696L119.883 38.1232L119.862 36.4764L121.002 36.5027C121.975 36.5252 122.182 36.5519 122.412 36.6852ZM60.5015 39.2982C60.8032 40.3964 61.0317 41.3252 61.0092 41.3618C60.9517 41.4545 58.6822 41.4467 58.6243 41.3536C58.5837 41.2879 59.684 37.4188 59.794 37.2407C59.881 37.1 59.9647 37.3437 60.5015 39.2982ZM13.4958 37.4319C13.6251 37.5607 13.6251 39.6637 13.4958 39.7929C13.3415 39.9472 11.1487 39.9205 11.0884 39.7634C10.9973 39.5263 11.0367 37.5296 11.1343 37.4319C11.1975 37.3687 11.5714 37.3392 12.3151 37.3392C13.0587 37.3392 13.4326 37.3687 13.4958 37.4319ZM16.2513 38.6122V39.8467H15.0549H13.8586L13.8364 38.7665C13.804 37.1882 13.6784 37.3314 15.0763 37.3564L16.2513 37.3778V38.6122ZM19.956 38.6122V39.8467H18.7597H17.5633L17.542 38.693C17.5137 37.1878 17.3811 37.3314 18.7773 37.3564L19.956 37.3778V38.6122ZM13.4958 40.2094C13.6251 40.3386 13.6251 42.4411 13.4958 42.5704C13.3415 42.7246 11.1487 42.698 11.0884 42.5408C11.0272 42.3817 11.0272 40.3977 11.0884 40.2389C11.1487 40.0818 13.3415 40.0547 13.4958 40.2094ZM22.8116 41.3897V42.6241H21.6153H20.4189L20.3976 41.4705C20.3697 39.9652 20.2371 40.1088 21.6329 40.1339L22.8116 40.1552V41.3897ZM13.5418 43.0163C13.6325 43.2535 13.5935 45.2502 13.4958 45.3478C13.4326 45.411 13.0587 45.4401 12.3151 45.4401C11.5714 45.4401 11.1975 45.411 11.1343 45.3478C11.0346 45.2481 10.9969 43.0422 11.0929 42.9458C11.2152 42.8239 13.4929 42.8896 13.5418 43.0163ZM19.956 44.1671V45.4016L18.914 45.4241C17.3856 45.4565 17.5248 45.5812 17.5248 44.1786C17.5248 43.5287 17.5486 42.9732 17.5781 42.9437C17.6072 42.9146 18.1543 42.8998 18.7937 42.9117L19.956 42.933V44.1671Z" fill="#8A8F98"/>
<path fill-rule="evenodd" clip-rule="evenodd" d="M83.6091 32.6056C83.6834 32.6253 83.8048 32.6253 83.8791 32.6056C83.9534 32.5863 83.8927 32.5703 83.7441 32.5703C83.5955 32.5703 83.5348 32.5863 83.6091 32.6056ZM85.6927 32.6056C85.767 32.6253 85.8885 32.6253 85.9632 32.6056C86.0374 32.5863 85.9763 32.5703 85.8277 32.5703C85.6792 32.5703 85.6184 32.5863 85.6927 32.6056ZM30.625 32.7648C31.3572 32.7771 32.5556 32.7771 33.2877 32.7648C34.0199 32.7521 33.4207 32.7414 31.9564 32.7414C30.4916 32.7414 29.8929 32.7521 30.625 32.7648ZM43.7842 32.7644C44.1979 32.7783 44.8751 32.7783 45.2892 32.7644C45.7029 32.7504 45.3643 32.7393 44.5365 32.7393C43.7087 32.7393 43.3701 32.7504 43.7842 32.7644ZM58.9113 32.7644C59.41 32.7779 60.2263 32.7779 60.7249 32.7644C61.224 32.7508 60.8156 32.7402 59.8183 32.7402C58.8206 32.7402 58.4127 32.7508 58.9113 32.7644ZM65.9732 32.7644C66.4086 32.7783 67.1203 32.7783 67.5557 32.7644C67.9907 32.7508 67.6345 32.7393 66.7644 32.7393C65.8944 32.7393 65.5382 32.7508 65.9732 32.7644ZM75.316 32.7644C75.7535 32.7783 76.4483 32.7783 76.86 32.7644C77.2716 32.7504 76.9137 32.7393 76.0646 32.7393C75.2155 32.7393 74.879 32.7508 75.316 32.7644ZM93.4149 32.7644C93.831 32.7783 94.491 32.7783 94.8813 32.7644C95.2715 32.7504 94.9313 32.7389 94.1249 32.7389C93.318 32.7389 92.9987 32.7504 93.4149 32.7644ZM99.9711 32.7644C100.343 32.7783 100.95 32.7783 101.322 32.7644C101.693 32.75 101.389 32.7385 100.647 32.7385C99.9038 32.7385 99.5997 32.75 99.9711 32.7644ZM110.622 32.7644C110.993 32.7783 111.601 32.7783 111.973 32.7644C112.344 32.75 112.04 32.7385 111.297 32.7385C110.555 32.7385 110.25 32.75 110.622 32.7644ZM117.486 32.7644C118.194 32.7771 119.375 32.7775 120.11 32.7648C120.845 32.7521 120.266 32.7414 118.822 32.7414C117.379 32.7414 116.778 32.7516 117.486 32.7644ZM130.693 32.7644C131.109 32.7783 131.769 32.7783 132.159 32.7644C132.55 32.7504 132.209 32.7389 131.403 32.7389C130.596 32.7389 130.277 32.7504 130.693 32.7644ZM143.506 32.7648C144.687 32.7767 146.597 32.7767 147.751 32.7648C148.905 32.7525 147.938 32.743 145.604 32.743C143.269 32.743 142.325 32.7529 143.506 32.7648ZM35.4112 32.8386C35.5068 32.8571 35.6459 32.8563 35.7198 32.837C35.7937 32.8177 35.7149 32.8025 35.545 32.8033C35.3755 32.8042 35.3151 32.8202 35.4112 32.8386ZM122.316 32.8386C122.412 32.8571 122.551 32.8563 122.624 32.837C122.698 32.8177 122.62 32.8025 122.45 32.8033C122.28 32.8042 122.22 32.8202 122.316 32.8386ZM42.2579 39.9976C42.2579 43.7318 42.2674 45.2706 42.2789 43.4175C42.2904 41.5644 42.2908 38.5092 42.2789 36.6282C42.2674 34.7471 42.2579 36.2634 42.2579 39.9976ZM96.3612 40.0362C96.3612 43.7916 96.3706 45.3281 96.3821 43.4503C96.3936 41.5726 96.3936 38.5002 96.3821 36.6224C96.3706 34.7447 96.3612 36.2811 96.3612 40.0362ZM133.64 38.2618L133.641 43.3153L135.956 43.317L138.272 43.3186L135.976 43.2965L133.68 43.2743L133.66 38.2413L133.639 33.2083L133.64 38.2618ZM150.613 34.6355C150.613 35.3359 150.625 35.6222 150.639 35.2723C150.654 34.9219 150.654 34.3492 150.639 33.9992C150.625 33.6489 150.613 33.9356 150.613 34.6355ZM113.418 40.0362C113.418 43.6645 113.427 45.1488 113.439 43.3346C113.45 41.5205 113.45 38.5523 113.439 36.7381C113.427 34.924 113.418 36.4083 113.418 40.0362ZM115.425 40.0362C115.425 43.6218 115.434 45.0889 115.446 43.2961C115.457 41.5032 115.457 38.5695 115.446 36.7767C115.434 34.9839 115.425 36.4505 115.425 40.0362ZM39.285 34.2692C39.4746 34.4706 39.6392 34.6355 39.6519 34.6355C39.7097 34.6355 39.6486 34.5662 39.3075 34.2466L38.9411 33.9028L39.285 34.2692ZM126.193 34.2885C126.337 34.437 126.472 34.5584 126.493 34.5584C126.515 34.5584 126.414 34.437 126.27 34.2885C126.126 34.14 125.991 34.0185 125.97 34.0185C125.948 34.0185 126.049 34.14 126.193 34.2885ZM11.7193 34.693C12.0719 34.7073 12.6276 34.7073 12.9542 34.693C13.2813 34.6786 12.9932 34.6667 12.314 34.6667C11.6348 34.6671 11.3672 34.6786 11.7193 34.693ZM14.4555 34.693C14.7846 34.7073 15.3231 34.7073 15.6518 34.693C15.981 34.6786 15.7117 34.6667 15.0539 34.6667C14.396 34.6667 14.1268 34.6786 14.4555 34.693ZM20.4293 34.6934C20.4096 34.7254 20.7638 34.7422 21.2161 34.7311C22.6792 34.695 22.8376 34.6647 21.638 34.6499C20.9932 34.6421 20.4495 34.6618 20.4293 34.6934ZM22.8027 35.87C22.8027 36.4854 22.8146 36.7369 22.829 36.4296C22.8438 36.1219 22.8438 35.6185 22.829 35.3108C22.8146 35.0031 22.8027 35.2546 22.8027 35.87ZM79.2083 36.2556C79.2083 36.4042 79.2243 36.4653 79.2436 36.391C79.2629 36.3168 79.2629 36.1949 79.2436 36.1207C79.2243 36.0464 79.2083 36.1071 79.2083 36.2556ZM144.981 36.5896C144.959 36.6458 144.952 37.0191 144.964 37.4187L144.986 38.1461L147.379 38.1477L149.772 38.1494L147.393 38.1272L145.015 38.1051L145.039 37.2961C145.063 36.4903 145.056 36.3951 144.981 36.5896ZM88.1625 36.7718C88.2368 36.7914 88.3583 36.7914 88.4326 36.7718C88.5069 36.7525 88.4461 36.7365 88.2975 36.7365C88.149 36.7365 88.0882 36.7525 88.1625 36.7718ZM12.314 37.0273L11.1562 37.0721L12.2902 37.0885C12.9809 37.0983 13.4426 37.0745 13.4718 37.0273C13.498 36.9851 13.5087 36.9576 13.4956 36.9662C13.4824 36.9752 12.9505 37.0027 12.314 37.0273ZM15.0924 37.0273L13.9347 37.0721L15.0686 37.0885C15.7593 37.0983 16.2211 37.0745 16.2502 37.0273C16.2765 36.9851 16.2871 36.9576 16.274 36.9662C16.2609 36.9752 15.729 37.0027 15.0924 37.0273ZM20.447 37.0487C20.4798 37.0819 21.008 37.0991 21.6203 37.0872L22.7334 37.0655L21.56 37.0269C20.9144 37.006 20.4137 37.0159 20.447 37.0487ZM35.8778 37.143C35.9168 37.228 35.9681 37.3494 35.9919 37.413C36.0288 37.5131 36.0354 37.5127 36.0407 37.4085C36.044 37.3424 35.9927 37.221 35.9266 37.1385C35.8088 36.9912 35.808 36.9912 35.8778 37.143ZM79.21 37.3744C79.2108 37.5443 79.2264 37.6046 79.2448 37.5086C79.2633 37.4126 79.2629 37.2739 79.2436 37.2001C79.2243 37.1262 79.2091 37.205 79.21 37.3744ZM127.447 37.4515C127.448 37.6214 127.464 37.6817 127.483 37.5857C127.501 37.4897 127.5 37.351 127.481 37.2772C127.462 37.2033 127.446 37.2821 127.447 37.4515ZM17.5573 37.5131C17.5364 37.5685 17.529 38.0977 17.5409 38.6897L17.5627 39.7662L17.6012 38.5896C17.6386 37.4319 17.6341 37.3141 17.5573 37.5131ZM19.9471 38.6474C19.9471 39.3051 19.959 39.5742 19.9734 39.2456C19.9882 38.9166 19.9882 38.3783 19.9734 38.0497C19.959 37.7207 19.9471 37.9898 19.9471 38.6474ZM122.973 38.1075C122.973 38.2983 122.987 38.3767 123.006 38.2811C123.024 38.1855 123.024 38.0292 123.006 37.934C122.987 37.8384 122.973 37.9164 122.973 38.1075ZM127.446 38.8017C127.446 38.9502 127.462 39.0109 127.481 38.9367C127.501 38.8624 127.501 38.741 127.481 38.6667C127.462 38.5925 127.446 38.6532 127.446 38.8017ZM80.3866 40.0362C80.5524 40.206 80.7055 40.3451 80.7268 40.3451C80.7482 40.3451 80.6295 40.206 80.4637 40.0362C80.2979 39.8667 80.1453 39.7276 80.1239 39.7276C80.1026 39.7276 80.2208 39.8667 80.3866 40.0362ZM102.825 43.4503C102.834 45.2854 102.851 46.2663 102.863 45.63C102.917 42.6864 102.918 40.1133 102.865 40.1133C102.834 40.1133 102.815 41.6148 102.825 43.4503ZM22.7334 41.3863C22.7334 42.0362 22.7592 42.5514 22.7912 42.5318C22.8228 42.5121 22.8491 41.9968 22.8491 41.3863C22.8491 40.7763 22.8228 40.2606 22.7912 40.2413C22.7592 40.2216 22.7334 40.7369 22.7334 41.3863ZM126.151 41.9845L125.846 42.3123L126.174 42.0074C126.479 41.7235 126.537 41.6567 126.479 41.6567C126.466 41.6567 126.319 41.804 126.151 41.9845ZM144.983 42.6401L144.986 43.5467L147.456 43.5484L149.926 43.55L147.478 43.5279L145.03 43.5061L145.004 42.6195L144.979 41.7334L144.983 42.6401ZM69.1916 44.4341C69.1916 45.813 69.2018 46.3771 69.215 45.6879C69.2277 44.9982 69.2277 43.8696 69.215 43.1804C69.2018 42.4907 69.1916 43.0548 69.1916 44.4341ZM73.6679 44.3955C73.6679 45.7531 73.6785 46.2979 73.6912 45.6058C73.704 44.9133 73.704 43.8023 73.6912 43.1369C73.6785 42.471 73.6679 43.0376 73.6679 44.3955ZM90.1694 42.4665C90.1702 42.6364 90.1862 42.6967 90.2047 42.6007C90.2232 42.5047 90.2223 42.366 90.203 42.2922C90.1838 42.2183 90.1686 42.2967 90.1694 42.4665ZM11.542 42.9428C12.4728 42.9986 13.4931 43.0019 13.4599 42.949C13.4402 42.917 12.9136 42.8973 12.2902 42.9051C11.6664 42.9129 11.3299 42.9301 11.542 42.9428ZM18.1988 42.9482C18.5066 42.9629 19.0102 42.9629 19.318 42.9482C19.6258 42.9334 19.3742 42.9215 18.7586 42.9215C18.143 42.9215 17.891 42.9334 18.1988 42.9482ZM19.9159 44.1412C19.895 44.8074 19.9044 45.3256 19.9377 45.2924C19.9705 45.2591 19.9877 44.7139 19.9758 44.0809L19.9541 42.9297L19.9159 44.1412ZM17.538 44.14C17.5298 44.7635 17.5495 45.2899 17.5815 45.3096C17.6131 45.3293 17.6304 44.9929 17.6189 44.5617C17.582 43.1434 17.5524 42.9892 17.538 44.14ZM90.1694 43.4696C90.1702 43.6394 90.1862 43.6998 90.2047 43.6038C90.2232 43.5078 90.2223 43.3687 90.203 43.2952C90.1838 43.2214 90.1686 43.2998 90.1694 43.4696ZM47.9133 43.3342C48.5605 43.3473 49.6198 43.3473 50.2674 43.3342C50.9146 43.3215 50.3848 43.3108 49.0904 43.3108C47.7955 43.3108 47.2657 43.3215 47.9133 43.3342ZM83.3415 43.7966C83.5656 43.8122 83.9132 43.8122 84.1131 43.7962C84.3133 43.7802 84.1299 43.7674 83.7055 43.7679C83.2808 43.7679 83.117 43.781 83.3415 43.7966ZM51.978 45.3211C51.978 46.1276 51.9895 46.4468 52.0034 46.0308C52.0174 45.6148 52.0174 44.9551 52.0034 44.565C51.9895 44.1748 51.978 44.5149 51.978 45.3211ZM52.7947 46.7053C52.7947 46.8513 52.8214 46.9875 52.8542 47.0076C52.8866 47.0278 52.9006 46.9084 52.8845 46.7422C52.8493 46.3689 52.7947 46.3467 52.7947 46.7053ZM24.1176 47.2308L23.8911 47.4815L24.1419 47.255C24.3758 47.0438 24.4279 46.9802 24.3684 46.9802C24.3553 46.9802 24.2424 47.093 24.1176 47.2308ZM83.3 47.4963C83.3743 47.5155 83.4962 47.5155 83.5705 47.4963C83.6448 47.4766 83.584 47.461 83.4355 47.461C83.2869 47.461 83.2258 47.4766 83.3 47.4963Z" fill="#8A8F98"/>
<path fill-rule="evenodd" clip-rule="evenodd" d="M13.7616 32.3803C15.537 32.3922 18.4197 32.3922 20.1676 32.3803C21.9155 32.3688 20.4627 32.3594 16.9394 32.3594C13.4165 32.3594 11.9862 32.3688 13.7616 32.3803ZM84.4551 32.6109C84.6578 32.6269 84.9705 32.6269 85.1499 32.6105C85.3288 32.5945 85.163 32.5813 84.7809 32.5813C84.3988 32.5817 84.2523 32.5949 84.4551 32.6109ZM30.5812 32.8435C31.4193 32.8558 32.7913 32.8558 33.6297 32.8435C34.4682 32.8308 33.782 32.8205 32.1055 32.8205C30.4286 32.8205 29.7428 32.8308 30.5812 32.8435ZM43.6633 32.8431C44.1406 32.8566 44.922 32.8566 45.3997 32.8431C45.877 32.8295 45.4863 32.8185 44.5313 32.8185C43.5763 32.8185 43.1856 32.8295 43.6633 32.8431ZM58.8335 32.8435C59.42 32.8562 60.3577 32.8562 60.9175 32.8431C61.4773 32.8299 60.9976 32.8193 59.8517 32.8193C58.7055 32.8193 58.2474 32.8303 58.8335 32.8435ZM65.9339 32.8431C66.435 32.8566 67.2341 32.8566 67.7089 32.8431C68.1842 32.8295 67.7742 32.8185 66.7978 32.8185C65.8215 32.8189 65.4328 32.8299 65.9339 32.8431ZM75.1955 32.8431C75.6966 32.8566 76.4957 32.8566 76.9705 32.8431C77.4458 32.8295 77.0358 32.8185 76.0594 32.8185C75.0831 32.8189 74.6944 32.8299 75.1955 32.8431ZM93.2127 32.8431C93.6904 32.8566 94.4718 32.8566 94.9491 32.8431C95.4268 32.8295 95.0361 32.8185 94.0811 32.8185C93.1257 32.8185 92.735 32.8295 93.2127 32.8431ZM99.8157 32.8431C100.275 32.857 101.004 32.8566 101.436 32.8431C101.869 32.8295 101.494 32.818 100.603 32.818C99.711 32.8185 99.3573 32.8295 99.8157 32.8431ZM110.467 32.8431C110.925 32.857 111.655 32.8566 112.087 32.8431C112.52 32.8295 112.145 32.818 111.254 32.818C110.362 32.8185 110.008 32.8295 110.467 32.8431ZM117.486 32.8435C118.324 32.8558 119.696 32.8558 120.535 32.8435C121.373 32.8308 120.687 32.8205 119.01 32.8205C117.333 32.8205 116.648 32.8308 117.486 32.8435ZM130.534 32.8431C131.035 32.8566 131.833 32.8566 132.309 32.8431C132.784 32.8295 132.374 32.8185 131.398 32.8185C130.421 32.8189 130.033 32.8299 130.534 32.8431ZM143.303 32.8435C144.544 32.8554 146.576 32.8554 147.817 32.8435C149.059 32.8316 148.043 32.8217 145.56 32.8217C143.077 32.8217 142.061 32.8316 143.303 32.8435ZM115.497 40.0377C115.497 43.7932 115.506 45.3296 115.518 43.4519C115.529 41.5741 115.529 38.5017 115.518 36.624C115.506 34.7462 115.497 36.2827 115.497 40.0377ZM46.729 38.3405C46.729 41.12 46.7385 42.2568 46.7504 40.8673C46.7623 39.4777 46.7623 37.2037 46.7504 35.8137C46.7385 34.4242 46.729 35.561 46.729 38.3405ZM113.336 40.0377C113.336 43.751 113.345 45.2697 113.357 43.4133C113.368 41.5569 113.368 38.519 113.357 36.6626C113.345 34.8061 113.336 36.3249 113.336 40.0377ZM91.8797 40.0377C91.8797 43.7083 91.8891 45.2098 91.9006 43.3748C91.9121 41.5393 91.9121 38.5362 91.9006 36.7011C91.8891 34.8656 91.8797 36.3672 91.8797 40.0377ZM140.58 40.0377C140.58 43.7083 140.59 45.2098 140.601 43.3748C140.613 41.5393 140.613 38.5362 140.601 36.7011C140.59 34.8656 140.58 36.3672 140.58 40.0377ZM28.592 40.0377C28.592 43.666 28.6015 45.1504 28.6129 43.3362C28.6244 41.522 28.6244 38.5538 28.6129 36.7397C28.6015 34.9255 28.592 36.4098 28.592 40.0377ZM24.5787 40.0377C24.5787 43.5385 24.5881 44.9707 24.5996 43.2205C24.6111 41.4699 24.6111 38.6055 24.5996 36.8554C24.5881 35.1048 24.5787 36.537 24.5787 40.0377ZM126.107 34.2708C126.427 34.6113 126.496 34.6728 126.496 34.6146C126.496 34.6022 126.332 34.4373 126.13 34.2482L125.764 33.9044L126.107 34.2708ZM11.7104 34.6174C12.0182 34.6322 12.5218 34.6322 12.8296 34.6174C13.1374 34.6027 12.8858 34.5908 12.2702 34.5908C11.6546 34.5908 11.403 34.6027 11.7104 34.6174ZM14.4893 34.6174C14.7967 34.6322 15.3002 34.6322 15.608 34.6174C15.9158 34.6027 15.6643 34.5908 15.0487 34.5908C14.4331 34.5908 14.1815 34.6027 14.4893 34.6174ZM21.0492 34.6174C21.357 34.6322 21.8606 34.6322 22.1684 34.6174C22.4762 34.6027 22.2246 34.5908 21.609 34.5908C20.9934 34.5908 20.7418 34.6027 21.0492 34.6174ZM11.0665 35.8716C11.0665 36.5292 11.078 36.7984 11.0928 36.4697C11.1071 36.1407 11.1071 35.6025 11.0928 35.2738C11.078 34.9448 11.0665 35.2139 11.0665 35.8716ZM13.8449 35.8716C13.8449 36.5292 13.8568 36.7984 13.8712 36.4697C13.8856 36.1407 13.8856 35.6025 13.8712 35.2738C13.8568 34.9448 13.8449 35.2139 13.8449 35.8716ZM13.5359 35.8716C13.5359 36.487 13.5478 36.7385 13.5622 36.4312C13.5769 36.1235 13.5769 35.6201 13.5622 35.3124C13.5478 35.0047 13.5359 35.2562 13.5359 35.8716ZM85.0711 36.2355C85.1885 36.2535 85.3621 36.2527 85.4573 36.2347C85.5521 36.2162 85.456 36.2018 85.2439 36.2022C85.0317 36.2031 84.9541 36.2178 85.0711 36.2355ZM32.9907 38.1284L32.9928 39.7678L33.8419 39.7723L34.691 39.7764L33.8628 39.7501L33.0346 39.7239L33.0112 38.1062L32.9883 36.4886L32.9907 38.1284ZM11.7527 37.3949C12.0835 37.4096 12.6047 37.4092 12.9105 37.3949C13.2162 37.3801 12.9453 37.3682 12.3088 37.3682C11.6719 37.3686 11.4219 37.3805 11.7527 37.3949ZM14.4503 37.3949C14.7794 37.4092 15.3179 37.4092 15.6466 37.3949C15.9758 37.3805 15.7065 37.3686 15.0487 37.3686C14.3908 37.3686 14.1216 37.3805 14.4503 37.3949ZM17.5685 37.3953C17.5488 37.4273 17.903 37.4441 18.3553 37.433C19.8184 37.3969 19.9768 37.3666 18.7772 37.3518C18.1324 37.344 17.5887 37.3637 17.5685 37.3953ZM40.5467 38.1091C40.5467 38.5547 40.5594 38.7368 40.575 38.514C40.5906 38.2913 40.5906 37.927 40.575 37.7042C40.5594 37.4814 40.5467 37.6636 40.5467 38.1091ZM11.0661 38.6105C11.0661 39.2472 11.0784 39.497 11.0928 39.1664C11.1071 38.8357 11.1071 38.3147 11.0924 38.009C11.078 37.7034 11.0661 37.9741 11.0661 38.6105ZM13.5359 38.6105C13.5359 39.2472 13.5478 39.497 13.5626 39.1664C13.5769 38.8357 13.5769 38.3147 13.5622 38.009C13.5478 37.7034 13.5359 37.9741 13.5359 38.6105ZM13.849 38.6683L13.8523 39.8449L15.0294 39.8482L16.2064 39.8511L15.0507 39.8269L13.895 39.8022L13.8704 38.647L13.8462 37.4917L13.849 38.6683ZM150.222 39.9606C150.222 40.6609 150.234 40.9473 150.248 40.5973C150.263 40.247 150.263 39.6742 150.248 39.3243C150.234 38.9739 150.222 39.2607 150.222 39.9606ZM80.4167 39.9799C80.6063 40.1817 80.7713 40.3467 80.7836 40.3467C80.8414 40.3467 80.7803 40.2773 80.4392 39.9573L80.0728 39.6135L80.4167 39.9799ZM119.927 39.7514C119.961 39.7846 120.35 39.8018 120.792 39.7895L121.595 39.767L120.731 39.7288C120.255 39.7079 119.894 39.7181 119.927 39.7514ZM17.5858 39.8277C17.619 39.8609 18.1645 39.8781 18.7977 39.8663L19.9497 39.8445L18.7378 39.8064C18.0709 39.785 17.5529 39.7949 17.5858 39.8277ZM11.6719 39.8638C12.001 39.8781 12.5394 39.8781 12.8682 39.8638C13.1973 39.8494 12.9281 39.8375 12.2702 39.8375C11.6123 39.8375 11.3431 39.8494 11.6719 39.8638ZM109.035 42.1789C109.046 43.399 109.064 44.935 109.076 45.593C109.087 46.2507 109.104 45.2525 109.114 43.3748C109.123 41.497 109.105 39.9606 109.073 39.9606C109.041 39.9606 109.024 40.9588 109.035 42.1789ZM11.6719 40.1723C12.001 40.1867 12.5394 40.1867 12.8682 40.1723C13.1973 40.1579 12.9281 40.146 12.2702 40.146C11.6123 40.146 11.3431 40.1579 11.6719 40.1723ZM20.7984 40.167C21.7231 40.2228 22.8266 40.226 22.7934 40.1727C22.7737 40.1411 22.2299 40.1214 21.5852 40.1292C20.9404 40.137 20.5862 40.1542 20.7984 40.167ZM11.0661 41.3879C11.0661 42.0246 11.0784 42.2745 11.0928 41.9438C11.1071 41.6131 11.1071 41.0921 11.0924 40.7865C11.078 40.4808 11.0661 40.7516 11.0661 41.3879ZM13.5359 41.3879C13.5359 42.0246 13.5478 42.2745 13.5626 41.9438C13.5769 41.6131 13.5769 41.0921 13.5622 40.7865C13.5478 40.4808 13.5359 40.7516 13.5359 41.3879ZM60.9709 41.2595C60.9709 41.3235 60.6294 41.3542 59.7938 41.3666L58.6168 41.3834L59.7684 41.4072C60.8367 41.4293 61.1798 41.3785 61.0234 41.2221C60.9943 41.193 60.9709 41.2098 60.9709 41.2595ZM21.609 42.5838L20.4126 42.6285L21.5852 42.6449C22.3013 42.6548 22.7762 42.631 22.8053 42.5838C22.8316 42.5415 22.8422 42.514 22.8291 42.5231C22.816 42.5317 22.2669 42.5592 21.609 42.5838ZM11.6719 42.6412C12.001 42.6556 12.5394 42.6556 12.8682 42.6412C13.1973 42.6269 12.9281 42.615 12.2702 42.615C11.6123 42.615 11.3431 42.6269 11.6719 42.6412ZM11.0694 42.9924C11.048 43.0474 11.0406 43.5943 11.0526 44.2076L11.0743 45.3227L11.1129 44.1075C11.1502 42.9124 11.1457 42.793 11.0694 42.9924ZM13.5359 44.1653C13.5359 44.802 13.5478 45.0523 13.5626 44.7212C13.5769 44.3906 13.5769 43.8699 13.5622 43.5639C13.5478 43.2583 13.5359 43.529 13.5359 44.1653ZM35.1347 43.4084C35.209 43.4281 35.3304 43.4281 35.4047 43.4084C35.479 43.3891 35.4183 43.3731 35.2697 43.3731C35.1211 43.3731 35.0604 43.3891 35.1347 43.4084ZM122.002 43.41C122.098 43.4285 122.237 43.4277 122.31 43.4084C122.384 43.3891 122.306 43.3739 122.136 43.3748C121.966 43.3756 121.906 43.3916 122.002 43.41ZM32.9874 45.0913C32.9874 46.025 32.9985 46.3963 33.0121 45.9163C33.0256 45.4367 33.0256 44.6728 33.0121 44.2191C32.9985 43.7653 32.987 44.1579 32.9874 45.0913ZM83.5275 43.8736C83.6449 43.8913 83.8185 43.8909 83.9137 43.8728C84.0085 43.8544 83.9125 43.84 83.7003 43.8404C83.4881 43.8408 83.4102 43.856 83.5275 43.8736ZM18.792 45.3612L17.6342 45.4064L18.7682 45.4224C19.4585 45.4322 19.9206 45.4084 19.9497 45.3612C19.976 45.319 19.9866 45.2915 19.9735 45.3005C19.9604 45.3091 19.4285 45.3366 18.792 45.3612ZM11.7527 45.4187C12.0835 45.4334 12.6047 45.433 12.9105 45.4187C13.2162 45.4039 12.9453 45.392 12.3088 45.3924C11.6719 45.3924 11.4219 45.4043 11.7527 45.4187ZM66.7773 46.6728C66.7773 46.8213 66.7929 46.882 66.8126 46.8078C66.8319 46.7335 66.8319 46.6121 66.8126 46.5378C66.7929 46.4636 66.7773 46.5243 66.7773 46.6728ZM29.9595 47.2706C30.4134 47.2841 31.1776 47.2841 31.6573 47.2706C32.1371 47.257 31.7657 47.2459 30.832 47.2459C29.8979 47.2459 29.5056 47.257 29.9595 47.2706ZM44.9807 47.271C46.1828 47.2829 48.1277 47.2829 49.3027 47.271C50.4777 47.2587 49.4939 47.2492 47.1169 47.2492C44.7398 47.2492 43.7786 47.2591 44.9807 47.271ZM54.1594 47.2706C54.6371 47.2841 55.4185 47.2841 55.8962 47.2706C56.3735 47.257 55.9828 47.2459 55.0278 47.2459C54.0728 47.2459 53.6821 47.257 54.1594 47.2706ZM63.7727 47.2706C64.2742 47.2841 65.0729 47.2841 65.5481 47.2706C66.023 47.257 65.613 47.2459 64.6366 47.2459C63.6603 47.2464 63.2716 47.257 63.7727 47.2706ZM70.5559 47.2706C71.0102 47.2841 71.774 47.2841 72.2541 47.2706C72.7339 47.257 72.3625 47.2459 71.4288 47.2459C70.4947 47.2459 70.102 47.257 70.5559 47.2706ZM93.2472 47.2706C93.7011 47.2841 94.4652 47.2841 94.945 47.2706C95.4248 47.257 95.0533 47.2459 94.1197 47.2459C93.1856 47.2459 92.7928 47.257 93.2472 47.2706ZM99.8928 47.2706C100.352 47.2841 101.081 47.2841 101.514 47.2706C101.947 47.2566 101.571 47.2455 100.68 47.2455C99.7886 47.2459 99.4344 47.257 99.8928 47.2706ZM110.385 47.2706C110.842 47.2841 111.588 47.2841 112.045 47.2706C112.501 47.257 112.127 47.2459 111.215 47.2459C110.302 47.2459 109.929 47.257 110.385 47.2706ZM116.787 47.2706C117.241 47.2841 118.005 47.2841 118.485 47.2706C118.965 47.257 118.593 47.2459 117.659 47.2459C116.726 47.2459 116.333 47.257 116.787 47.2706ZM131.886 47.271C133.088 47.2829 135.033 47.2829 136.207 47.271C137.382 47.2587 136.399 47.2492 134.022 47.2492C131.645 47.2492 130.683 47.2591 131.886 47.271ZM143.38 47.271C144.621 47.2829 146.653 47.2829 147.895 47.271C149.136 47.2591 148.12 47.2492 145.637 47.2492C143.154 47.2492 142.138 47.2591 143.38 47.271ZM84.1846 47.5011C84.366 47.5175 84.6438 47.5171 84.8023 47.5007C84.9603 47.4839 84.8117 47.4708 84.4719 47.4708C84.1325 47.4712 84.0032 47.4847 84.1846 47.5011Z" fill="#8A8F98"/>
<path fill-rule="evenodd" clip-rule="evenodd" d="M98.5278 40.038C98.5278 43.7086 98.5372 45.2101 98.5487 43.375C98.5602 41.5396 98.5602 38.5365 98.5487 36.7014C98.5372 34.8659 98.5278 36.3675 98.5278 40.038ZM129.168 40.038C129.168 43.7086 129.178 45.2101 129.189 43.375C129.201 41.5396 129.201 38.5365 129.189 36.7014C129.178 34.8659 129.168 36.3675 129.168 40.038ZM79.217 36.7978C79.217 36.9886 79.2318 37.0669 79.2502 36.9713C79.2687 36.8758 79.2687 36.7195 79.2502 36.6243C79.2318 36.5287 79.217 36.6066 79.217 36.7978ZM119.902 38.1094C119.902 38.9791 119.914 39.3352 119.927 38.9C119.941 38.4651 119.941 37.7533 119.927 37.3184C119.914 36.8836 119.902 37.2397 119.902 38.1094ZM146.169 41.716C146.816 41.7291 147.875 41.7291 148.523 41.716C149.17 41.7032 148.641 41.6926 147.346 41.6926C146.051 41.6926 145.522 41.7032 146.169 41.716ZM90.1731 42.9701C90.1731 43.1186 90.1891 43.1793 90.2084 43.1051C90.2281 43.0308 90.2281 42.909 90.2084 42.8347C90.1891 42.7605 90.1731 42.8216 90.1731 42.9701ZM119.902 45.053C119.902 45.9227 119.914 46.2788 119.927 45.844C119.941 45.4091 119.941 44.6973 119.927 44.2624C119.914 43.8271 119.902 44.1832 119.902 45.053ZM58.8781 45.0337C59.3981 45.0468 60.2489 45.0468 60.7689 45.0337C61.2893 45.0202 60.8637 45.0091 59.8237 45.0091C58.7838 45.0091 58.3582 45.0202 58.8781 45.0337Z" fill="#8A8F98"/>
</g>
<defs>
<clipPath id="clip0_21_7162">
<rect width="142" height="16" fill="white" transform="translate(9 32)"/>
</clipPath>
</defs>
</svg>
