<svg width="29" height="29" viewBox="0 0 29 29" fill="none" xmlns="http://www.w3.org/2000/svg">
<path d="M20.076 4.22087C20.076 3.4656 20.7023 2.85771 21.4391 2.85771H25.197C25.9523 2.85771 26.5602 3.4656 26.5602 4.22087V14.9419C26.5602 15.6972 25.9523 16.3051 25.197 16.3051H21.4391C20.6839 16.3051 20.076 15.6972 20.076 14.9419V4.22087ZM4.08649 12.6209C3.27596 11.9761 3.14701 10.7972 3.79175 9.98666C4.04965 9.65508 4.41807 9.43402 4.82333 9.34192C4.0128 8.69718 3.88386 7.51823 4.52859 6.72613C4.78649 6.39455 5.15491 6.1735 5.57859 6.06297C4.76807 5.41823 4.63912 4.23929 5.30228 3.42876C5.65228 2.98665 6.18649 2.72876 6.75754 2.72876L17.3496 2.83929C18.1049 2.83929 18.7128 3.44718 18.7128 4.20244V14.9235C18.7128 16.6182 13.297 19.7314 13.0207 21.4077C12.8365 22.4761 13.076 25.2577 12.3391 25.2577C11.0681 25.2577 9.46544 24.7788 9.46544 21.9788C9.46544 19.5103 11.0865 16.3051 11.0865 16.3051H4.49175C3.46017 16.3051 2.63123 15.4761 2.63123 14.4446C2.63123 13.5603 3.23912 12.8051 4.08649 12.6209Z" fill="url(#paint0_linear_21_7325)"/>
<defs>
<linearGradient id="paint0_linear_21_7325" x1="6.51438" y1="2.19215" x2="23.1998" y2="18.8776" gradientUnits="userSpaceOnUse">
<stop stop-color="#EF5350"/>
<stop offset="1" stop-color="#C62828"/>
</linearGradient>
</defs>
</svg>
