<svg width="160" height="80" viewBox="0 0 160 80" fill="none" xmlns="http://www.w3.org/2000/svg">
<path d="M39.5331 33.7647C35.0625 33.7647 32.9449 35.5294 32.9449 38.2941V45.0588C32.9449 47.8235 35.0625 49.6471 39.5919 49.6471C44.1801 49.6471 46.2978 47.8824 46.2978 45.0588V38.2941C46.2978 35.5294 44.1801 33.7647 39.6507 33.7647H39.5331ZM42.239 44.7059C42.239 45.8823 41.3566 46.3529 39.5919 46.3529C37.9449 46.3529 37.0037 45.7647 37.0037 44.5882V38.5882C37.0037 37.4118 37.886 36.9412 39.6507 36.9412C41.4154 36.9412 42.3566 37.5294 42.3566 38.5882V44.7647L42.239 44.7059ZM128.533 35.8824V33.9412H124.533V49.2353H128.651V39.4706C129.239 38.8824 130.768 37.8235 133.004 37.7059H133.768V33.7647H133.062C130.827 33.7647 129.357 35.1177 128.533 36V35.8824ZM116.533 33.7059C112.062 33.7059 110.239 35.4706 110.239 38.1765V39H114.004V38.2941C114.004 37.2941 114.592 36.8235 116.357 36.8235C118.121 36.8235 118.71 37.4118 118.71 38.5882V40.5294H114.415C111.357 40.5294 109.71 42.2941 109.71 44.4118V45.8235C109.71 47.8824 111.18 49.7059 114.239 49.7059C116.474 49.7059 117.945 48.7647 118.945 47.9412V49.4706H122.71V38.2941C122.71 35.4706 121.062 33.7647 116.533 33.7647V33.7059ZM118.71 45.0588C118.004 45.6471 116.71 46.4118 115.298 46.4118C114.298 46.4118 113.71 46.0588 113.71 45.2353V44.6471C113.71 43.8824 114.004 43.2941 115.18 43.2941H118.71V45.0588ZM28.1801 30.0588H24.0625V44.7647C24.0625 47.8235 25.4154 49.3529 29.9449 49.3529H31.5919V45.9412H30.5919C28.8272 45.9412 28.1213 45.4706 28.1213 44.3529V37.7059H31.7684V33.8824H28.1213V30.0588H28.1801ZM72.2978 37.7059V33.7647H71.4743C69.239 33.7647 67.7684 35.1177 66.9448 36V34.0588H62.9448V49.3529H67.0625V39.4706C67.6507 38.8824 69.1801 37.8235 71.4154 37.7059H72.2978ZM57.1801 44.7647C56.5919 45.2353 55.2978 46.1176 53.7684 46.1176C52.4743 46.1176 52.1213 45.5294 52.1213 44.4706V34H48.0037V45.4706C48.0037 47.8235 49.7684 49.5882 52.5331 49.5882C55.0625 49.5882 56.5331 48.5882 57.3566 47.8235V49.3529H61.2978V34.0588H57.1801V44.7647ZM104.062 35.3529C103.18 34.6471 101.71 33.7647 99.3566 33.7647C96.239 33.7647 94.8272 35.5294 94.8272 38.2941V45.1177C94.8272 47.8824 96.239 49.6471 99.2978 49.6471C101.768 49.6471 103.415 48.5882 104.18 47.8824V49.4118H108.062V30H103.945V35.2941L104.062 35.3529ZM104.062 44.7647C103.474 45.1765 102.062 46.1176 100.533 46.1176C99.0037 46.1176 98.886 45.2941 98.886 44.4706V38.8824C98.886 38.0588 99.0625 37.2941 100.533 37.2941C102.062 37.2941 103.474 38.2353 104.062 38.7059V44.7647Z" fill="#8A8F98"/>
<path d="M86.8231 33.7656C82.4113 33.7656 80.5878 35.5303 80.5878 38.2362V39.0597H84.3525V38.295C84.3525 37.295 84.9407 36.8244 86.7054 36.8244C88.4701 36.8244 89.0584 37.4127 89.0584 38.5892V40.5303H84.7642C81.6466 40.5303 80.0584 42.295 80.0584 44.4127V45.8244C80.0584 47.8833 81.4701 49.7068 84.5289 49.7068C86.7054 49.7068 88.176 48.7656 89.1172 47.9421V49.4715H92.9407V38.295C92.9407 35.3539 91.176 33.7656 86.7054 33.7656H86.8231ZM89.0584 45.0597C88.3525 45.648 87.0584 46.4127 85.6466 46.4127C84.7054 46.4127 84.1172 46.1186 84.1172 45.2362V44.7656C84.1172 43.9421 84.4113 43.3539 85.5878 43.3539H89.1172V45.1186L89.0584 45.0597ZM74.2348 35.9421V39.4715H73.3525C71.9995 39.5892 70.8819 40.0597 70.1172 40.4127V49.2362H74.2348V39.4715C74.8231 38.8833 76.3525 37.8244 78.5878 37.7068H79.4113V33.7656H78.5878C76.4701 33.7656 75.0584 35.0597 74.176 35.8833L74.2348 35.9421Z" fill="#8A8F98"/>
</svg>
