<svg width="232" height="90" viewBox="0 0 232 90" fill="none" xmlns="http://www.w3.org/2000/svg">
<g clip-path="url(#clip0_21_8004)">
<path d="M147.378 35C149.354 35.0547 151.747 35.1406 153.192 36.64C154.045 37.6506 154.509 38.9331 154.5 40.2558C154.525 40.8332 154.429 41.4095 154.218 41.9475C154.007 42.4855 153.685 42.9733 153.274 43.3795C152.69 43.8971 152.024 44.3129 151.302 44.6095C152.188 44.812 153.009 45.232 153.692 45.8317C154.594 46.8455 155.076 48.1651 155.039 49.5217C155.055 50.1579 154.943 50.7908 154.709 51.3825C154.474 51.9743 154.123 52.5127 153.676 52.9656C152.114 54.5549 150.061 54.5822 147.819 54.6369H138.811V50.6306L140.564 50.6579V38.9789L138.811 39.0062V35H147.378ZM145.668 42.8993C147.253 42.9266 147.476 42.9266 147.866 42.8446C148.307 42.7505 148.701 42.5023 148.975 42.1445C149.25 41.7867 149.388 41.3428 149.365 40.8922C149.387 40.5318 149.309 40.1723 149.138 39.8538C148.968 39.5353 148.713 39.2703 148.401 39.0882C147.956 38.8657 147.679 38.8657 145.703 38.8383L145.668 42.8993ZM145.668 50.6306H147.23C148.311 50.6306 149.842 50.6033 149.842 48.7407C149.865 48.3404 149.762 47.943 149.548 47.604C149.333 47.2651 149.019 47.0018 148.647 46.8508C148.175 46.6556 147.952 46.6556 145.699 46.6556L145.668 50.6306Z" fill="#8A8F98"/>
<path d="M169.745 49.6876C169.55 50.7184 169.296 52.0812 168.019 53.3034C166.742 54.5255 164.895 54.9746 163.095 54.9746C159.257 54.9746 155.891 53.112 155.891 47.4931C155.872 46.5144 156.004 45.5386 156.281 44.5997C157.257 41.2885 159.956 39.9141 162.919 39.9141C165.145 39.9141 166.953 40.695 167.995 41.7493C170.112 43.8071 170.003 47.1456 169.971 48.4264H161.174C161.174 49.5392 161.205 51.5111 163.009 51.5111C164.512 51.5111 164.708 50.2342 164.794 49.7032L169.745 49.6876ZM164.801 45.6813C164.822 45.296 164.775 44.9099 164.661 44.5412C164.54 44.216 164.319 43.9381 164.028 43.7483C163.738 43.5585 163.394 43.4669 163.048 43.4869C161.377 43.4869 161.322 45.0995 161.322 45.6813H164.801Z" fill="#8A8F98"/>
<path d="M184.676 50.6286V54.6348H178.667L178.558 52.9675C178.124 53.6165 177.529 54.1421 176.832 54.4931C176.135 54.8441 175.358 55.0086 174.579 54.9707C171.99 54.9707 170.377 53.44 170.377 50.6559C170.346 49.903 170.51 49.1548 170.852 48.4833C171.194 47.8118 171.703 47.2395 172.33 46.8215C174.165 45.5681 177.015 45.6774 178.421 45.7047C178.457 45.1953 178.439 44.6835 178.366 44.178C178.326 43.8776 178.175 43.6029 177.943 43.4074C177.712 43.2118 177.416 43.1094 177.113 43.1198C176.937 43.1174 176.763 43.1508 176.6 43.218C176.438 43.2851 176.291 43.3845 176.168 43.5103C176.006 43.7009 175.883 43.9222 175.808 44.161C175.733 44.3998 175.707 44.6512 175.731 44.9004H170.877C170.877 44.093 171.047 43.2946 171.377 42.5575C172.408 40.4724 175.024 39.8594 177.027 39.8594C178.917 39.8594 181.088 40.4138 182.283 41.6399C183.368 42.7215 183.478 43.9828 183.478 45.0331V50.6286H184.676ZM178.429 48.2389C177.906 48.1758 177.375 48.2142 176.867 48.3521C176.481 48.455 176.143 48.6881 175.909 49.012C175.676 49.3358 175.562 49.7304 175.586 50.1288C175.586 51.1011 176.09 51.6321 176.84 51.6321C177.09 51.6354 177.338 51.573 177.557 51.451C177.776 51.3291 177.96 51.1519 178.089 50.9371C178.315 50.5386 178.431 50.0871 178.425 49.629L178.429 48.2389Z" fill="#8A8F98"/>
<path d="M191.691 35.7227V40.2287H193.999V44.2193H191.691V49.4087C191.719 49.9359 191.773 51.0214 193.109 51.0214C193.365 51.0233 193.619 50.977 193.858 50.8847V54.5551C192.861 54.7669 191.847 54.8884 190.828 54.9183C189.216 54.9183 187.99 54.4692 187.377 53.8601C186.596 53.0792 186.572 52.0522 186.572 51.2439V44.2193H185.319V40.2287H186.963V36.8004L191.691 35.7227Z" fill="#8A8F98"/>
<path d="M37.6001 35H46.0304V39.0062L44.3045 38.9789L47.1667 50.2167L50.2553 38.9789L48.5333 39.0062V35H56.2647V39.0062L54.9566 38.9789L50.0874 54.6369H43.7461L38.8223 38.9789L37.6001 39.0062V35Z" fill="#E9E9EA"/>
<path d="M68.3349 49.6876C68.1397 50.7184 67.8898 52.0812 66.613 53.3034C65.3361 54.5255 63.4892 54.9746 61.6891 54.9746C57.8508 54.9746 54.4849 53.112 54.4849 47.4931C54.4649 46.5143 54.5966 45.5383 54.8754 44.5997C55.8476 41.2885 58.5458 39.9141 61.5134 39.9141C63.7391 39.9141 65.547 40.695 66.5895 41.7493C68.7059 43.8071 68.5927 47.1456 68.5653 48.4264H59.768C59.768 49.5392 59.7953 51.5111 61.6032 51.5111C63.1065 51.5111 63.3018 50.2342 63.3838 49.7032L68.3349 49.6876ZM63.3838 45.6813C63.4041 45.2963 63.3578 44.9105 63.2471 44.5412C63.1263 44.2153 62.904 43.9369 62.6129 43.7471C62.3218 43.5573 61.9774 43.4661 61.6305 43.4869C59.9632 43.4869 59.9085 45.0995 59.9085 45.6813H63.3838Z" fill="#E9E9EA"/>
<path d="M83.907 50.6304H85.1057V54.6366H78.7332V46.1712C78.7503 45.8163 78.7134 45.4608 78.6239 45.1169C78.5264 44.8831 78.3587 44.6854 78.1439 44.5511C77.9292 44.4168 77.678 44.3525 77.4251 44.3672C77.2286 44.3673 77.034 44.4067 76.853 44.4831C76.6719 44.5596 76.508 44.6715 76.3708 44.8123C75.871 45.3122 75.8398 45.9486 75.8125 46.7647V50.6694H76.7886V54.6366H69.4985V50.6304H70.6699V44.2188H69.4985V40.2282H75.2033L75.3673 42.4266C75.5867 41.9901 75.8785 41.5941 76.2303 41.2551C76.7121 40.7873 77.2826 40.4206 77.9083 40.1765C78.5339 39.9324 79.202 39.8159 79.8734 39.8338C81.3767 39.8338 82.3802 40.3922 82.9074 40.9506C83.8523 41.8955 83.8796 43.063 83.907 44.0744V50.6304Z" fill="#E9E9EA"/>
<path d="M92.0038 35.7227V40.2287H94.3115V44.2193H92.0038V49.4087C92.0312 49.9359 92.0858 51.0214 93.4213 51.0214C93.6788 51.0237 93.9345 50.9773 94.1749 50.8847V54.5551C93.1765 54.7668 92.1611 54.8884 91.1409 54.9183C89.5283 54.9183 88.3061 54.4692 87.693 53.8601C86.9121 53.0792 86.8848 52.0522 86.8848 51.2439V44.2193H85.6313V40.2287H87.2752V36.8004L92.0038 35.7227Z" fill="#E9E9EA"/>
<path d="M101.488 40.2266V48.6569C101.488 49.2387 101.543 50.5741 102.851 50.5741C104.159 50.5741 104.214 49.1293 104.214 48.3796V44.2172L103.159 44.2445V40.2266H109.407V50.6561L110.602 50.6287V54.635H104.671V53.0223C104.191 53.7267 103.511 54.2708 102.718 54.5842C102.018 54.8607 101.272 55.0025 100.52 55.002C99.9612 55.0294 99.4027 54.9451 98.8771 54.754C98.3514 54.563 97.8692 54.2689 97.4585 53.8892C96.373 52.8349 96.3184 51.4409 96.2871 50.1094V44.2172L95.1157 44.2445V40.2266H101.488Z" fill="#E9E9EA"/>
<path d="M117.485 42.7301C117.707 41.9492 118.234 40.0632 120.999 40.0632C121.46 40.0556 121.919 40.1107 122.365 40.2272V44.8465C121.964 44.7513 121.552 44.7041 121.139 44.7059C120.247 44.6673 119.373 44.9656 118.691 45.5415C118.023 46.2092 117.996 46.9589 117.996 48.2748L117.941 50.6177H119.636V54.6356H111.725V50.6294H112.92V44.2178H111.725V40.2272H117.317L117.485 42.7301Z" fill="#E9E9EA"/>
<path d="M137.28 49.6876C137.089 50.7184 136.839 52.0812 135.558 53.3034C134.278 54.5255 132.434 54.9746 130.634 54.9746C126.796 54.9746 123.43 53.112 123.43 47.4931C123.41 46.5143 123.542 45.5383 123.821 44.5997C124.793 41.2885 127.491 39.9141 130.439 39.9141C132.665 39.9141 134.473 40.695 135.515 41.7493C137.628 43.8071 137.518 47.1456 137.491 48.4264H128.717C128.717 49.5392 128.745 51.5111 130.549 51.5111C132.052 51.5111 132.247 50.2342 132.333 49.7032L137.28 49.6876ZM132.333 45.6813C132.354 45.296 132.306 44.9099 132.192 44.5412C132.073 44.2153 131.851 43.9367 131.561 43.7467C131.27 43.5568 130.926 43.4657 130.58 43.4869C128.909 43.4869 128.854 45.0995 128.854 45.6813H132.333Z" fill="#E9E9EA"/>
</g>
<defs>
<clipPath id="clip0_21_8004">
<rect width="156.4" height="20" fill="white" transform="translate(37.6001 35)"/>
</clipPath>
</defs>
</svg>
