<svg width="160" height="80" viewBox="0 0 160 80" fill="none" xmlns="http://www.w3.org/2000/svg">
<path fill-rule="evenodd" clip-rule="evenodd" d="M51.438 30.2816C45.7157 31.5142 39.8963 35.8812 37.8416 40.4841C36.191 44.1818 37.0045 47.4928 39.9641 49.1265C42.0492 50.2773 45.9675 50.2927 49.2117 49.1625C55.6035 46.9355 60.8685 41.4842 61.4121 36.5299C61.908 32.0115 57.1742 29.0461 51.438 30.2816ZM50.9372 37.3515C53.9794 38.6277 54.7363 39.086 54.9038 39.7535C55.209 40.9694 54.5859 41.5003 50.5067 43.5026C46.7296 45.3562 45.7281 45.5073 45.0921 44.3191C44.6242 43.4447 44.9838 42.7614 46.3309 41.9668C48.0194 40.9704 47.9424 39.7819 46.1292 38.8568C44.7002 38.128 44.3115 37.044 45.1701 36.1853C45.873 35.4825 47.0488 35.7202 50.9372 37.3515Z" fill="#D7D7D7"/>
<path fill-rule="evenodd" clip-rule="evenodd" d="M93.2513 34.5995C92.9554 34.8958 92.7132 35.1944 92.7132 35.2633C92.7132 35.4739 90.3092 45.8361 90.1119 46.4772C89.8448 47.3434 91.846 47.2972 92.5975 46.4197C93.1506 45.7734 93.1753 45.7744 94.1254 46.4769C95.4142 47.4301 97.8796 47.4427 99.1482 46.5029C101.454 44.7952 102.387 41.3749 101.088 39.3929C99.9911 37.7187 96.9189 37.3776 95.3584 38.7561C94.6727 39.3624 94.6669 39.3548 94.9094 38.1715C95.5321 35.1328 95.5519 34.6766 95.0755 34.3748C94.3734 33.9303 93.8572 33.994 93.2513 34.5995ZM65.1625 38.3708C64.6686 38.8647 64.6813 38.9627 65.3036 39.484C65.8061 39.9046 66.1212 40.9067 66.499 43.2854C66.7812 45.0617 67.1497 46.6529 67.3176 46.8208C67.4857 46.9889 68.1344 47.0766 68.7588 47.016C69.7593 46.9184 70.1912 46.4974 72.3842 43.4803C73.7536 41.5965 74.8807 39.7138 74.8886 39.2966C74.9006 38.6681 74.0577 37.829 73.4148 37.829C73.3251 37.829 72.3719 39.2233 71.2964 40.9276C70.221 42.6319 69.2691 43.9543 69.1811 43.8663C69.0928 43.7783 68.8903 42.6556 68.7314 41.3719C68.5129 39.611 68.2584 38.8887 67.6957 38.4332C66.7709 37.6844 65.8712 37.6622 65.1625 38.3708ZM75.5637 46.3464C75.0558 45.3973 76.7926 38.2691 77.5824 38.0602C77.8982 37.9766 78.2428 37.8906 78.3483 37.8687C78.4534 37.8468 78.7993 38.0218 79.1168 38.2571C79.6566 38.6572 79.6498 38.8753 79.012 41.5965L78.1883 45.1134C78.1102 45.4463 78.2757 45.9477 78.5558 46.2279C79.0062 46.6783 78.9768 46.7697 78.2996 47.0201C77.2245 47.4177 75.972 47.1091 75.5637 46.3464ZM106.061 38.5996C104.036 39.6223 102.988 41.2304 102.988 43.3135C102.988 45.4686 103.853 46.5447 105.999 47.0591C107.977 47.5339 110.293 47.1167 111.307 46.1025C112.61 44.7993 111.199 43.718 109.687 44.8613C108.331 45.8871 105.774 45.3535 105.286 43.9427C105.117 43.4526 105.472 43.3615 107.954 43.2577C111.908 43.0923 113.357 42.0103 112.768 39.6631C112.315 37.8588 108.671 37.281 106.061 38.5996ZM115.722 46.7595C112.527 45.436 113.176 40.331 116.765 38.5548C119.394 37.2529 122.461 37.7283 123.512 39.6001C124.702 41.7202 122.518 43.3091 118.412 43.3091C115.867 43.3091 115.521 43.5776 116.57 44.7376C117.287 45.5299 119.658 45.5764 120.738 44.8198C121.679 44.1612 122.511 44.4078 122.511 45.3446C122.511 46.8872 118.2 47.7856 115.722 46.7595ZM81.9922 38.3893C81.8606 38.5205 81.7531 38.9106 81.7531 39.2562C81.7531 39.8015 82.0497 39.884 84.0078 39.884C85.248 39.884 86.2115 40.022 86.1485 40.1909C86.0858 40.3598 84.7524 41.5301 83.1855 42.7919C80.117 45.2634 79.7337 45.7802 80.3869 46.5673C80.9835 47.2862 89.2882 47.3215 89.2882 46.6046C89.2882 45.7323 88.1716 45.1939 86.0043 45.0216L83.8503 44.8503L86.8263 42.4432C89.1139 40.5927 89.802 39.8405 89.802 39.1894C89.802 38.3458 89.7886 38.3424 86.0166 38.2465C83.9345 38.1938 82.1233 38.2578 81.9922 38.3893ZM98.2498 40.4532C99.1153 41.2365 99.0869 43.4433 98.1998 44.3304C96.4047 46.1254 93.8712 45.1935 93.9552 42.7682C94.0346 40.4686 96.687 39.039 98.2498 40.4532ZM109.443 41.5628C110.607 41.1573 110.917 40.1089 109.98 39.7493C108.892 39.3318 107.81 39.5612 106.78 40.4281C106.201 40.9158 105.727 41.4553 105.727 41.6269C105.727 42.0598 108.137 42.018 109.443 41.5628ZM121.154 40.0725C121.853 40.914 120.863 41.6042 118.625 41.835C116.97 42.0059 116.688 41.9525 116.688 41.4682C116.688 40.7455 118.638 39.5447 119.814 39.543C120.309 39.5423 120.912 39.7807 121.154 40.0725Z" fill="#8A8F98"/>
</svg>
