<svg width="160" height="80" viewBox="0 0 160 80" fill="none" xmlns="http://www.w3.org/2000/svg">
<g clip-path="url(#clip0_21_7076)">
<path d="M104.546 24L115.116 40.4876L106.006 55.8786H55.5457L62.1059 42.2473H57.4778L43.6719 24H104.546Z" fill="#8A8F98"/>
<path d="M51.5469 27.3086H58.0286L61.2862 32.2817L60.1292 27.3086H65.1843L68.4532 32.2434L67.3523 27.3086H71.3514L73.1713 37.8923H67.3411L64.3305 33.7863L65.0607 37.8923H59.6125L51.5469 27.3086ZM72.0591 27.3086H77.9679L82.933 37.8923H77.0355L72.0591 27.3086ZM84.5057 37.8923L79.5405 27.3086H85.292L88.9542 35.1125H93.8632L95.1663 37.8923H84.5057ZM106.894 36.7319C105.928 37.8285 104.31 37.905 102.895 37.905H96.0987L91.1334 27.3213H99.053C102.401 27.3213 103.838 28.1119 104.894 29.3106C106.063 30.6367 107.478 33.3273 107.478 35.0487C107.478 35.852 107.22 36.3494 106.894 36.7319ZM101.547 33.4038L100.637 31.4656C100.165 30.4454 99.5585 29.9991 98.671 29.9991H97.9184L100.367 35.2273H101.109C101.67 35.2273 102.007 35.0359 102.007 34.6662C101.996 34.3729 101.839 34.0158 101.547 33.4038Z" fill="#191919"/>
<path d="M72.895 51.5915H62.2344L67.1995 41.0078H72.951L69.289 48.8117H74.198L72.895 51.5915ZM79.7473 51.5915H73.8385L78.8036 41.0078H84.7124L79.7473 51.5915ZM95.6651 44.0299H90.4864L89.7338 45.5729H94.5193L93.2274 48.3399H88.4532L86.903 51.5915H81.3199L86.2852 41.0078H97.0805L95.6651 44.0299ZM108.112 43.6857H102.439L101.798 44.9735H107.078L105.865 47.5749H100.597L99.945 48.9138H105.82L104.562 51.5915H93.3061L98.2713 41.0078H109.37L108.112 43.6857Z" fill="#191919"/>
</g>
<defs>
<clipPath id="clip0_21_7076">
<rect width="72" height="32" fill="white" transform="translate(43.6719 24)"/>
</clipPath>
</defs>
</svg>
